<svg xmlns="http://www.w3.org/2000/svg" xmlns:xlink="http://www.w3.org/1999/xlink" viewBox="0 0 1920 1080"><defs><style>.cls-1,.cls-27{fill:none;}.cls-2{isolation:isolate;}.cls-3{fill:url(#linear-gradient);}.cls-4{fill:#1b42a7;}.cls-5{fill:#0d7fc6;}.cls-30,.cls-6{fill:#39baf9;}.cls-7{fill:#1f398e;}.cls-8{fill:#c9faf0;}.cls-9{fill:#7fcffa;}.cls-10{fill:#abe2f5;}.cls-11{fill:#fffbf8;}.cls-12{fill:#a58bfd;}.cls-13{fill:#712ad4;}.cls-14{fill:#fff;}.cls-15{fill:url(#linear-gradient-2);}.cls-16,.cls-39,.cls-40{fill:#edf4ff;}.cls-17{fill:url(#linear-gradient-3);}.cls-18{fill:url(#linear-gradient-4);}.cls-19{fill:#121214;opacity:0.17;}.cls-20{fill:#ffbf99;}.cls-21{fill:#b3b3b3;mix-blend-mode:multiply;}.cls-22{fill:#f774bb;}.cls-23{fill:#eb4798;}.cls-24{fill:#ffd7bf;}.cls-25{fill:#844d03;}.cls-26,.cls-28{fill:#edeaff;}.cls-27{stroke:#edeaff;stroke-miterlimit:10;stroke-width:2.56px;}.cls-28{font-size:35.98px;font-family:MyriadPro-Regular, Myriad Pro;}.cls-29{letter-spacing:-0.03em;}.cls-30{opacity:0.46;}.cls-31{clip-path:url(#clip-path);}.cls-32{clip-path:url(#clip-path-2);}.cls-33{clip-path:url(#clip-path-3);}.cls-34{clip-path:url(#clip-path-4);}.cls-35{clip-path:url(#clip-path-5);}.cls-36{clip-path:url(#clip-path-6);}.cls-37{clip-path:url(#clip-path-7);}.cls-38{clip-path:url(#clip-path-8);}.cls-39{font-size:21.24px;}.cls-39,.cls-40{font-family:OpenSans-Regular, Open Sans;}.cls-40{font-size:26.35px;}</style><linearGradient id="linear-gradient" x1="-91.55" y1="1163.47" x2="2326.83" y2="-270.4" gradientUnits="userSpaceOnUse"><stop offset="0.19" stop-color="#4f1d91"/><stop offset="0.28" stop-color="#582492"/><stop offset="0.43" stop-color="#703794"/><stop offset="0.62" stop-color="#975697"/><stop offset="0.83" stop-color="#cc809c"/><stop offset="1" stop-color="#faa4a0"/></linearGradient><linearGradient id="linear-gradient-2" x1="1387.88" y1="378.61" x2="1258.4" y2="500.29" gradientUnits="userSpaceOnUse"><stop offset="0.34" stop-color="#39baf9"/><stop offset="0.53" stop-color="#36b7f6"/><stop offset="0.69" stop-color="#2faced"/><stop offset="0.84" stop-color="#219add"/><stop offset="0.99" stop-color="#0f81c8"/><stop offset="1" stop-color="#0d7fc6"/></linearGradient><linearGradient id="linear-gradient-3" x1="1555.34" y1="492.24" x2="1447.7" y2="592.08" gradientUnits="userSpaceOnUse"><stop offset="0.54" stop-color="#39baf9"/><stop offset="0.67" stop-color="#36b7f6"/><stop offset="0.79" stop-color="#2faced"/><stop offset="0.89" stop-color="#219add"/><stop offset="0.99" stop-color="#0f81c8"/><stop offset="1" stop-color="#0d7fc6"/></linearGradient><linearGradient id="linear-gradient-4" x1="1759.87" y1="586.46" x2="1628.82" y2="714.38" gradientUnits="userSpaceOnUse"><stop offset="0.27" stop-color="#39baf9"/><stop offset="0.48" stop-color="#36b7f6"/><stop offset="0.66" stop-color="#2faced"/><stop offset="0.83" stop-color="#219add"/><stop offset="0.99" stop-color="#0f81c8"/><stop offset="1" stop-color="#0d7fc6"/></linearGradient><clipPath id="clip-path"><polygon class="cls-1" points="274.78 745.93 274.74 732.09 292.48 721.85 292.52 735.68 274.78 745.93"/></clipPath><clipPath id="clip-path-2"><polygon class="cls-1" points="275.68 691.42 275.64 677.45 292.79 667.55 292.83 681.52 275.68 691.42"/></clipPath><clipPath id="clip-path-3"><polygon class="cls-1" points="275.66 637.09 275.62 623.33 292.63 613.51 292.67 627.26 275.66 637.09"/></clipPath><clipPath id="clip-path-4"><polygon class="cls-1" points="275.53 577.88 275.49 563.91 292.77 553.94 292.81 567.91 275.53 577.88"/></clipPath><clipPath id="clip-path-5"><polygon class="cls-1" points="275.5 526 275.46 512.05 292.61 502.15 292.65 516.1 275.5 526"/></clipPath><clipPath id="clip-path-6"><polygon class="cls-1" points="275.31 470.78 275.27 456.81 292.73 446.73 292.77 460.7 275.31 470.78"/></clipPath><clipPath id="clip-path-7"><polygon class="cls-1" points="275.28 416.95 275.24 403.19 292.57 393.19 292.61 406.94 275.28 416.95"/></clipPath><clipPath id="clip-path-8"><polygon class="cls-1" points="275.4 361.64 275.36 347.67 292.75 337.63 292.79 351.6 275.4 361.64"/></clipPath></defs><g class="cls-2"><g id="Pregnancy_WeightTracking" data-name="Pregnancy WeightTracking"><rect class="cls-3" width="1920" height="1080"/><polygon class="cls-4" points="1892.96 722.21 1521.37 938.16 874.6 564.75 1246.2 348.8 1892.96 722.21"/><polygon class="cls-5" points="1892.96 722.21 1892.9 744.39 1521.3 960.34 1521.37 938.16 1892.96 722.21"/><polygon class="cls-6" points="1521.37 938.16 1521.3 960.34 874.54 586.93 874.6 564.75 1521.37 938.16"/><path class="cls-7" d="M1151.75,495.67l73.68,42.54c3.81,2.2,3.33,6-1.07,8.58l-71,41c-4.4,2.54-11,2.82-14.86.62l-73.68-42.54c-3.81-2.2-3.34-6,1.06-8.58l71-41C1141.28,493.75,1147.94,493.47,1151.75,495.67Z"/><path class="cls-8" d="M1231.93,534.44V521.92l-7.64,5.85-72.23-41.7c-4-2.31-11-2-15.57.64l-70.77,40.87-7.4-5.66v12.54h0c-.12,1.56.75,3.07,2.67,4.18l77.18,44.56c4,2.31,11,2,15.57-.64l74.38-42.94c2.55-1.48,3.84-3.37,3.8-5.16h0Z"/><path class="cls-9" d="M1231.94,521.92v12.54c0,1.79-1.26,3.68-3.82,5.16l-71.88,41.51-1.3.75V516.44h49.73l19.62,11.32Z"/><path class="cls-10" d="M1156.24,562.28v18.85l-1.3.75-1.18.68c-4.61,2.65-11.59,3-15.58.64l-2.71-1.57V562.28Z"/><path class="cls-11" d="M1152.06,473.44,1229.24,518c4,2.31,3.49,6.33-1.11,9l-74.38,42.94c-4.61,2.66-11.58,3-15.57.65L1061,526c-4-2.31-3.49-6.33,1.12-9l74.37-42.94C1141.1,471.43,1148.07,471.14,1152.06,473.44Z"/><path class="cls-12" d="M1151.5,477.41l70.87,40.92c3.67,2.12,3.21,5.81-1,8.26L1153.05,566c-4.23,2.44-10.63,2.7-14.3.59l-70.87-40.92c-3.67-2.12-3.21-5.81,1-8.25L1137.2,478C1141.43,475.56,1147.83,475.3,1151.5,477.41Z"/><path class="cls-13" d="M1153.11,566l-.06,0a14.33,14.33,0,0,1-2.85,1.23h0l-83.42-48.16a9.14,9.14,0,0,1,2.13-1.65l0,0Z"/><polygon class="cls-13" points="1161.05 561.39 1158.5 562.86 1074.35 514.29 1076.9 512.81 1161.05 561.39"/><polygon class="cls-13" points="1168.99 556.81 1166.45 558.27 1082.31 509.69 1084.84 508.23 1168.99 556.81"/><polygon class="cls-13" points="1176.94 552.22 1174.39 553.68 1090.24 505.1 1092.8 503.63 1176.94 552.22"/><polygon class="cls-13" points="1184.89 547.62 1182.34 549.1 1098.2 500.52 1100.74 499.04 1184.89 547.62"/><polygon class="cls-13" points="1192.84 543.04 1190.29 544.51 1106.15 495.93 1108.7 494.46 1192.84 543.04"/><polygon class="cls-13" points="1200.79 538.45 1198.24 539.92 1114.1 491.34 1116.65 489.87 1200.79 538.45"/><polygon class="cls-13" points="1208.74 533.85 1206.19 535.33 1122.05 486.75 1124.6 485.27 1208.74 533.85"/><polygon class="cls-13" points="1216.69 529.27 1214.14 530.74 1130 482.16 1132.55 480.69 1216.69 529.27"/><path class="cls-13" d="M1224,524.32a7.42,7.42,0,0,1-1.94,1.81L1138,477.59a14.68,14.68,0,0,1,3.15-1.11Z"/><path class="cls-10" d="M1133.33,537.92c-.66-2.18-2.54-4.32-5.51-6A28.28,28.28,0,0,0,1108,529.3l-12.49,3.15a5.45,5.45,0,0,0-2.19,1l-.06-.14-.88,0v2h0a3.52,3.52,0,0,0,2.06,2.65l22.6,13c3.16,1.83,8.14,1.51,9.75-.61l5.47-7.21a5.94,5.94,0,0,0,1.28-3.95v-1.88Z"/><path class="cls-11" d="M1117.09,549.3l-22.6-13c-3.16-1.82-2.62-4.7,1.06-5.63l12.49-3.15a28.28,28.28,0,0,1,19.78,2.59h0c5.47,3.16,7.27,7.74,4.49,11.42l-5.47,7.21C1125.23,550.82,1120.25,551.13,1117.09,549.3Z"/><path class="cls-14" d="M1116.5,546.66,1098,536c-2.59-1.49-2.15-3.84.87-4.61l10.22-2.58a23.2,23.2,0,0,1,16.2,2.12h0c4.48,2.59,6,6.34,3.67,9.35l-4.47,5.91C1123.17,547.9,1119.09,548.15,1116.5,546.66Z"/><path class="cls-10" d="M1098.87,533.71l10.22-2.58a23.2,23.2,0,0,1,16.2,2.12c2.53,1.47,4.1,3.3,4.58,5.17.68-2.6-1-5.44-4.58-7.52a23.2,23.2,0,0,0-16.2-2.12l-10.22,2.58c-2.36.6-3.14,2.17-2.12,3.54A3.93,3.93,0,0,1,1098.87,533.71Z"/><path class="cls-7" d="M1344.89,606.46,1418.57,649c3.81,2.2,3.33,6-1.07,8.58l-71,41c-4.4,2.54-11,2.82-14.86.62L1258,656.65c-3.81-2.2-3.34-6,1.06-8.58l71-41C1334.42,604.54,1341.08,604.26,1344.89,606.46Z"/><path class="cls-8" d="M1425.07,645.23V632.72l-7.64,5.84-72.23-41.7c-4-2.31-11-2-15.57.64l-70.77,40.87-7.4-5.65v12.53h0c-.12,1.56.75,3.07,2.67,4.18L1331.32,694c4,2.31,11,2,15.57-.64l74.38-42.94c2.55-1.48,3.84-3.37,3.8-5.16h0Z"/><path class="cls-9" d="M1425.07,632.71v12.54c0,1.79-1.25,3.68-3.81,5.16l-71.88,41.51-1.3.75V627.23h49.73l19.62,11.32Z"/><path class="cls-10" d="M1349.38,673.07v18.85l-1.3.75-1.18.68c-4.61,2.65-11.59,2.95-15.58.64l-2.71-1.57V673.07Z"/><path class="cls-11" d="M1345.2,584.23l77.18,44.56c4,2.31,3.49,6.33-1.11,9l-74.38,42.94c-4.61,2.66-11.58,2.95-15.57.65l-77.18-44.56c-4-2.31-3.49-6.33,1.12-9l74.37-42.94C1334.24,582.22,1341.21,581.93,1345.2,584.23Z"/><path class="cls-12" d="M1344.64,588.2l70.87,40.92c3.66,2.12,3.2,5.81-1,8.26l-68.29,39.43c-4.23,2.44-10.64,2.71-14.3.59L1261,636.48c-3.67-2.12-3.21-5.81,1-8.25l68.3-39.44C1334.57,586.35,1341,586.09,1344.64,588.2Z"/><path class="cls-13" d="M1346.25,676.77l-.07,0a14.6,14.6,0,0,1-2.84,1.24h0l-83.42-48.17a9.14,9.14,0,0,1,2.13-1.65l0,0Z"/><polygon class="cls-13" points="1354.19 672.18 1351.64 673.65 1267.49 625.08 1270.04 623.6 1354.19 672.18"/><polygon class="cls-13" points="1362.13 667.6 1359.59 669.06 1275.44 620.48 1277.98 619.02 1362.13 667.6"/><polygon class="cls-13" points="1370.08 663.01 1367.53 664.47 1283.38 615.89 1285.93 614.42 1370.08 663.01"/><polygon class="cls-13" points="1378.03 658.41 1375.48 659.89 1291.34 611.31 1293.88 609.83 1378.03 658.41"/><polygon class="cls-13" points="1385.98 653.83 1383.43 655.3 1299.29 606.72 1301.84 605.25 1385.98 653.83"/><polygon class="cls-13" points="1393.93 649.24 1391.38 650.72 1307.24 602.13 1309.79 600.66 1393.93 649.24"/><polygon class="cls-13" points="1401.88 644.64 1399.33 646.12 1315.19 597.54 1317.74 596.06 1401.88 644.64"/><polygon class="cls-13" points="1409.83 640.06 1407.28 641.53 1323.14 592.95 1325.69 591.48 1409.83 640.06"/><path class="cls-13" d="M1417.13,635.11a7.59,7.59,0,0,1-1.94,1.81l-84.07-48.54a14.79,14.79,0,0,1,3.14-1.11Z"/><path class="cls-10" d="M1326.47,648.71c-.66-2.18-2.54-4.32-5.51-6a28.28,28.28,0,0,0-19.78-2.59l-12.49,3.15a5.45,5.45,0,0,0-2.19,1l-.06-.14-.88,0v2.05h0a3.52,3.52,0,0,0,2.06,2.65l22.6,13c3.16,1.83,8.14,1.51,9.75-.61l5.47-7.21a5.93,5.93,0,0,0,1.27-4l0-1.88Z"/><path class="cls-11" d="M1310.23,660.09l-22.6-13c-3.16-1.83-2.62-4.71,1.06-5.64l12.49-3.15a28.28,28.28,0,0,1,19.78,2.59h0c5.47,3.16,7.27,7.74,4.49,11.42l-5.47,7.21C1318.37,661.61,1313.39,661.92,1310.23,660.09Z"/><path class="cls-14" d="M1309.64,657.45l-18.5-10.69c-2.59-1.49-2.15-3.84.86-4.61l10.23-2.58a23.17,23.17,0,0,1,16.19,2.12h0c4.49,2.59,6,6.34,3.68,9.35l-4.48,5.91C1316.31,658.69,1312.23,658.94,1309.64,657.45Z"/><path class="cls-10" d="M1292,644.5l10.23-2.58a23.17,23.17,0,0,1,16.19,2.12c2.54,1.47,4.11,3.31,4.59,5.17.68-2.6-1-5.44-4.59-7.52a23.17,23.17,0,0,0-16.19-2.12L1292,642.15c-2.35.6-3.13,2.17-2.12,3.54A4,4,0,0,1,1292,644.5Z"/><path class="cls-7" d="M1536.25,715l73.68,42.54c3.81,2.2,3.33,6-1.06,8.58l-71,41c-4.4,2.53-11,2.81-14.86.61l-73.68-42.54c-3.81-2.2-3.33-6,1.07-8.58l71-41C1525.79,713,1532.44,712.75,1536.25,715Z"/><path class="cls-8" d="M1616.44,753.73a.27.27,0,0,1,0-.09V741.21l-7.65,5.84-72.23-41.7c-4-2.31-11-2-15.56.64l-70.78,40.87-7.4-5.65v12.53h0c-.12,1.56.75,3.07,2.67,4.18l77.19,44.56c4,2.31,11,2,15.56-.64l74.38-42.94c2.55-1.48,3.84-3.37,3.8-5.16h0Z"/><path class="cls-9" d="M1616.44,741.2v12.54c0,1.79-1.26,3.68-3.82,5.16l-71.88,41.51-1.3.75V735.72h49.73L1608.79,747Z"/><path class="cls-10" d="M1540.74,781.56v18.85l-1.3.75-1.18.68c-4.61,2.66-11.59,2.95-15.58.64l-2.71-1.57V781.56Z"/><path class="cls-11" d="M1536.56,692.72l77.19,44.56c4,2.31,3.49,6.33-1.12,9l-74.38,42.94c-4.6,2.66-11.57,2.95-15.56.65L1445.5,745.3c-4-2.31-3.49-6.33,1.12-9L1521,693.37C1525.6,690.71,1532.57,690.42,1536.56,692.72Z"/><path class="cls-12" d="M1536,696.69l70.87,40.92c3.67,2.12,3.21,5.81-1,8.26l-68.3,39.43c-4.23,2.44-10.63,2.71-14.3.59L1452.38,745c-3.67-2.12-3.21-5.81,1-8.25l68.3-39.44C1525.93,694.84,1532.33,694.58,1536,696.69Z"/><path class="cls-13" d="M1537.61,785.26l-.06,0a15.15,15.15,0,0,1-2.84,1.24h0l-83.43-48.17a9.35,9.35,0,0,1,2.13-1.65l.06,0Z"/><polygon class="cls-13" points="1545.55 780.67 1543 782.14 1458.86 733.57 1461.4 732.09 1545.55 780.67"/><polygon class="cls-13" points="1553.49 776.09 1550.95 777.55 1466.81 728.97 1469.35 727.51 1553.49 776.09"/><polygon class="cls-13" points="1561.44 771.5 1558.89 772.97 1474.75 724.38 1477.3 722.91 1561.44 771.5"/><polygon class="cls-13" points="1569.39 766.9 1566.84 768.38 1482.7 719.8 1485.25 718.32 1569.39 766.9"/><polygon class="cls-13" points="1577.34 762.32 1574.79 763.79 1490.65 715.21 1493.2 713.74 1577.34 762.32"/><polygon class="cls-13" points="1585.29 757.73 1582.74 759.21 1498.6 710.62 1501.15 709.15 1585.29 757.73"/><polygon class="cls-13" points="1593.24 753.13 1590.69 754.61 1506.55 706.03 1509.1 704.55 1593.24 753.13"/><polygon class="cls-13" points="1601.19 748.55 1598.64 750.02 1514.5 701.44 1517.05 699.97 1601.19 748.55"/><path class="cls-13" d="M1608.5,743.6a7.64,7.64,0,0,1-2,1.81l-84.07-48.53a14.18,14.18,0,0,1,3.15-1.12Z"/><path class="cls-10" d="M1517.83,757.2c-.66-2.18-2.54-4.31-5.51-6a28.28,28.28,0,0,0-19.78-2.59l-12.49,3.15a5.45,5.45,0,0,0-2.19,1l-.06-.14-.88,0v2.05h0a3.55,3.55,0,0,0,2.06,2.65l22.6,13c3.17,1.83,8.14,1.52,9.75-.61l5.47-7.21a5.94,5.94,0,0,0,1.28-4v-1.88Z"/><path class="cls-11" d="M1501.59,768.58l-22.6-13c-3.16-1.83-2.62-4.71,1.06-5.64l12.49-3.15a28.28,28.28,0,0,1,19.78,2.59h0c5.48,3.16,7.28,7.75,4.49,11.42l-5.46,7.21C1509.73,770.1,1504.76,770.41,1501.59,768.58Z"/><path class="cls-14" d="M1501,765.94l-18.5-10.69c-2.59-1.49-2.15-3.84.87-4.61l10.22-2.58a23.19,23.19,0,0,1,16.2,2.12h0c4.48,2.59,6,6.34,3.67,9.35l-4.47,5.91C1507.67,767.18,1503.59,767.43,1501,765.94Z"/><path class="cls-10" d="M1483.37,753l10.22-2.59a23.25,23.25,0,0,1,16.2,2.12c2.53,1.47,4.1,3.31,4.58,5.17.68-2.6-1-5.43-4.58-7.52a23.19,23.19,0,0,0-16.2-2.12l-10.22,2.58c-2.36.6-3.14,2.17-2.12,3.54A3.9,3.9,0,0,1,1483.37,753Z"/><g class="cls-2"><polygon class="cls-5" points="1416.12 435.71 1416.08 447.76 1325.27 498.5 1325.3 486.44 1416.12 435.71"/></g><path class="cls-15" d="M1235.86,446.87h0a21,21,0,0,1,10.46-18.11l80.39-44.67,89.41,51.62-80.39,44.67a21,21,0,0,0-10.46,18.12h0Z"/><g class="cls-2"><path class="cls-12" d="M1381.8,395.39l-34-19.64c-3.87-2.23-7.37-2.44-9.9-1l-4.93,2.87c2.53-1.47,6-1.26,9.9,1l34,19.63c7.69,4.44,13.9,15.19,13.87,24l0,11.33,4.93-2.87,0-11.33C1395.7,410.58,1389.49,399.82,1381.8,395.39Z"/><path class="cls-16" d="M1376.87,398.25c7.69,4.44,13.9,15.19,13.87,24l0,11.33-61.84-35.71,0-11.33c0-8.83,6.27-12.39,14-7.95Z"/></g><polygon class="cls-16" points="1374.74 396.8 1344.88 379.56 1344.88 117.99 1374.74 135.23 1374.74 396.8"/><polygon class="cls-12" points="1379.25 394.19 1374.74 396.8 1374.74 135.19 1379.25 132.58 1379.25 394.19"/><polygon class="cls-12" points="1374.74 153.48 1344.4 136.17 1344.4 122.13 1374.74 139.44 1374.74 153.48"/><path class="cls-12" d="M1389.63,74.15,1344.41,48c-3.81-2.19-7.26-2.4-9.75-.95l-14.25,8.28c2.49-1.45,5.94-1.24,9.74,1l45.22,26.11c7.57,4.36,13.68,15,13.65,23.64l-.07,26.15c0,4.32-1.54,7.36-4,8.79l14.26-8.29c2.46-1.43,4-4.46,4-8.78l.08-26.16C1403.3,89.1,1397.19,78.52,1389.63,74.15Z"/><path class="cls-16" d="M1375.37,82.44c7.57,4.36,13.68,15,13.65,23.64l-.07,26.15c0,8.69-6.18,12.2-13.74,7.83L1330,114c-7.57-4.36-13.67-15-13.65-23.64l.07-26.16c0-8.69,6.18-12.19,13.74-7.82Z"/><path class="cls-13" d="M1381.35,138.89a9.59,9.59,0,0,1-4.61-1.47l-45.22-26.11c-6.6-3.81-12.15-13.42-12.12-21l.07-26.16c0-2,.46-6.66,4.54-6.66a9.59,9.59,0,0,1,4.61,1.47l45.23,26.11c6.59,3.81,12.14,13.42,12.12,21l-.07,26.15C1385.89,134.23,1385.44,138.89,1381.35,138.89Z"/><g class="cls-2"><polygon class="cls-5" points="1594.93 538.09 1594.9 550.14 1504.08 600.87 1504.12 588.82 1594.93 538.09"/></g><path class="cls-17" d="M1414.67,549.25h0a21,21,0,0,1,10.46-18.11l80.39-44.67,89.41,51.62-80.39,44.67a21,21,0,0,0-10.46,18.11h0Z"/><g class="cls-2"><path class="cls-12" d="M1560.62,497.76l-34-19.63c-3.86-2.23-7.37-2.44-9.9-1l-4.93,2.87c2.53-1.47,6-1.27,9.9,1l34,19.63c7.68,4.44,13.89,15.19,13.87,24l0,11.33,4.93-2.87,0-11.33C1574.51,513,1568.3,502.2,1560.62,497.76Z"/><path class="cls-16" d="M1555.69,500.63c7.68,4.44,13.89,15.19,13.87,24l0,11.33-61.84-35.71,0-11.33c0-8.83,6.28-12.39,14-7.95Z"/></g><polygon class="cls-16" points="1553.55 499.18 1523.69 481.94 1523.69 220.37 1553.55 237.61 1553.55 499.18"/><polygon class="cls-12" points="1558.07 496.57 1553.55 499.18 1553.55 237.57 1558.07 234.96 1558.07 496.57"/><polygon class="cls-12" points="1553.55 255.85 1523.22 238.54 1523.22 224.5 1553.55 241.81 1553.55 255.85"/><path class="cls-12" d="M1568.44,176.53l-45.22-26.11c-3.81-2.2-7.25-2.4-9.74-.95l-14.26,8.28c2.49-1.45,5.94-1.24,9.74,1l45.23,26.1c7.56,4.37,13.67,14.95,13.65,23.65l-.08,26.15c0,4.32-1.53,7.36-4,8.79l14.25-8.29c2.46-1.43,4-4.46,4-8.78l.07-26.16C1582.12,191.48,1576,180.9,1568.44,176.53Z"/><path class="cls-16" d="M1554.19,184.81c7.56,4.37,13.67,14.95,13.65,23.65l-.08,26.15c0,8.69-6.17,12.2-13.74,7.83l-45.22-26.11c-7.56-4.36-13.67-15-13.65-23.64l.08-26.16c0-8.69,6.17-12.19,13.73-7.82Z"/><path class="cls-13" d="M1560.17,241.27a9.62,9.62,0,0,1-4.62-1.47l-45.22-26.11c-6.59-3.81-12.14-13.42-12.12-21l.07-26.16c0-2,.46-6.66,4.54-6.66a9.62,9.62,0,0,1,4.62,1.47l45.22,26.11c6.59,3.81,12.15,13.42,12.12,21l-.07,26.15C1564.7,236.61,1564.25,241.27,1560.17,241.27Z"/><g class="cls-2"><polygon class="cls-5" points="1785.85 647.89 1785.82 659.95 1695.01 710.68 1695.04 698.62 1785.85 647.89"/></g><path class="cls-18" d="M1605.6,659.06h0a21,21,0,0,1,10.45-18.12l80.39-44.67,89.41,51.62-80.39,44.67A21,21,0,0,0,1695,710.68h0Z"/><g class="cls-2"><path class="cls-12" d="M1751.54,607.57l-34-19.64c-3.87-2.23-7.38-2.44-9.91-1l-4.93,2.87c2.53-1.47,6-1.26,9.9,1l34,19.63c7.69,4.44,13.9,15.2,13.87,24l0,11.33,4.93-2.87,0-11.33C1765.44,622.76,1759.23,612,1751.54,607.57Z"/><path class="cls-16" d="M1746.61,610.43c7.69,4.44,13.9,15.2,13.87,24l0,11.33-61.84-35.7,0-11.33c0-8.84,6.28-12.4,14-8Z"/></g><polygon class="cls-16" points="1744.48 608.98 1714.62 591.74 1714.62 330.17 1744.48 347.41 1744.48 608.98"/><polygon class="cls-12" points="1748.99 606.38 1744.48 608.98 1744.48 347.37 1748.99 344.76 1748.99 606.38"/><polygon class="cls-12" points="1744.48 365.66 1714.14 348.35 1714.14 334.31 1744.48 351.62 1744.48 365.66"/><path class="cls-12" d="M1759.36,286.33l-45.22-26.11c-3.8-2.19-7.25-2.4-9.74-1l-14.26,8.28c2.49-1.44,5.94-1.24,9.75,1l45.22,26.11c7.56,4.36,13.68,14.95,13.65,23.64l-.07,26.15c0,4.32-1.54,7.36-4,8.79l14.26-8.28c2.45-1.43,4-4.47,4-8.79L1773,310C1773,301.28,1766.93,290.7,1759.36,286.33Z"/><path class="cls-16" d="M1745.11,294.62c7.56,4.36,13.68,14.95,13.65,23.64l-.07,26.15c0,8.69-6.18,12.2-13.74,7.84l-45.23-26.11c-7.56-4.37-13.67-15-13.64-23.65l.07-26.15c0-8.69,6.17-12.2,13.74-7.83Z"/><path class="cls-13" d="M1751.09,351.07a9.62,9.62,0,0,1-4.62-1.47l-45.22-26.11c-6.59-3.8-12.14-13.42-12.12-21l.08-26.16c0-2,.46-6.66,4.53-6.66a9.62,9.62,0,0,1,4.62,1.47l45.22,26.11c6.6,3.81,12.15,13.42,12.13,21l-.08,26.16C1755.63,346.41,1755.17,351.07,1751.09,351.07Z"/><ellipse class="cls-19" cx="1150.47" cy="519.78" rx="30.82" ry="53.39" transform="translate(623.47 1666.96) rotate(-89.64)"/><ellipse class="cls-19" cx="1342.63" cy="630.27" rx="30.82" ry="53.39" transform="matrix(0.01, -1, 1, 0.01, 703.92, 1968.91)"/><ellipse class="cls-19" cx="1534.18" cy="738.76" rx="30.82" ry="53.39" transform="translate(785.78 2268.27) rotate(-89.64)"/><polygon class="cls-20" points="1126.94 215.29 1124 320.36 1147.78 323.22 1139.76 214.37 1126.94 215.29"/><path class="cls-4" d="M1146.46,220a2.52,2.52,0,0,1-.33.68,2.58,2.58,0,0,1-.7.6c-2.09,1.26-4.67,1.33-7.15,1-.5-.06-1-.13-1.5-.22a26.28,26.28,0,0,1-3.66-.87,22.6,22.6,0,0,1-3.67-1.71,4.83,4.83,0,0,1-2.29-2.19,5.14,5.14,0,0,1-.22-2,37.87,37.87,0,0,1,1-7.66,17.09,17.09,0,0,1,4-7.68,13.45,13.45,0,0,1,7-3.62,5.72,5.72,0,0,1,1.64-.06c4.27.33,7.11,4.74,7.76,8.82C1149.25,210,1148.09,215.41,1146.46,220Z"/><path class="cls-21" d="M1146.46,220a2.52,2.52,0,0,1-.33.68,2.58,2.58,0,0,1-.7.6c-2.09,1.26-4.67,1.33-7.15,1,.37-.76.76-1.54,1.1-2.3a41.17,41.17,0,0,0,3.58-12.64,19.12,19.12,0,0,0-.12-6.36,10.77,10.77,0,0,0-1.34-3.52c-.24-.41-.54-.82-.81-1.23,4.27.33,7.11,4.74,7.76,8.82C1149.25,210,1148.09,215.41,1146.46,220Z"/><path class="cls-22" d="M1164,432.69c.06,2.54,0,5.16-.16,7.83-1.28,21.55-9,45.87-9.73,50.72a8.76,8.76,0,0,0-.09,1.62,19.48,19.48,0,0,1-10.73-.37,25.06,25.06,0,0,0,1.62-6.92s-3.54-51.21-3.78-57.58-6.37-17.46-6.37-17.46c-2.36-3.54-5.9-11.8-5.9-11.8-5.19-15.1-6.37-70.32-4.48-81.65a139.73,139.73,0,0,1,5.9-22.18l36.44-2.16s-4.45,85.41-3.72,122.09c.09,5.08.3,9.23.62,12.09.06.57.12,1.15.17,1.74.1,1.17.16,2.37.19,3.6,0,.24,0,.37,0,.37Z"/><path class="cls-4" d="M1154.11,505.63c-1.49.54-3,1.18-4.41,1.83-3.46,1.57-6.21,3.12-6.21,3.12-5.66,3.78-17,6.61-18.87,4s1.17-5.42,1.17-5.42,3.48-2.75,7.22-5.84c8.62,3.78,16.71-4.17,16.71-4.17l5.4-1.12C1156.21,501.51,1157.31,504.46,1154.11,505.63Z"/><path class="cls-7" d="M1155.12,498c1.09,3.47,2.19,6.42-1,7.59-1.49.54-3,1.18-4.41,1.83a25.69,25.69,0,0,0,0-8.3Z"/><path class="cls-23" d="M1164,432.63v.06l-.16,7.83c-1.28,21.55-9,45.87-9.73,50.72a8.76,8.76,0,0,0-.09,1.62,19.27,19.27,0,0,1-4.38.58c1-5.53,3.16-18.12,4.24-26,1.29-9.52,2.79-32.32-2.42-48.41a53,53,0,0,1-2.3-12c-.36-4.66-.84-11.66-1.38-21.67-2.66-48.37-8-57.58-8-57.58s13.25-.16,17.34,23.6c2.63,15.28,4.74,44.58,5.9,63.53.35,5.82.63,10.67.79,13.83.1,1.78.16,3,.19,3.6C1164,432.5,1164,432.63,1164,432.63Z"/><path class="cls-4" d="M1182.43,518.53s-3.77,8-9.75,12.11c-4.27,2.91-12.52,2.88-16.91,2.61a3.9,3.9,0,0,1-3.45-5.26,8,8,0,0,1,2.42-3.17c2-1.7,4.66-4.19,7.06-6.54,0,.31-.6,6.38,8.35,3.16,9.21-3.31,11-9.52,11-9.52Z"/><path class="cls-24" d="M1181.14,511.92s-1.78,6.21-11,9.52c-9,3.22-8.39-2.85-8.35-3.16,3.39-3.34,6.31-6.36,6.31-6.36s.86-.79,1.5-3.83a7.74,7.74,0,0,0,3.45,1.63c5.46.89,7.17-2.52,7.17-2.52Z"/><path class="cls-22" d="M1189.51,398s-2.83,11.79.47,23.12,3.78,25,.47,41.53-10.22,44.52-10.22,44.52-1.71,3.41-7.17,2.52a7.74,7.74,0,0,1-3.45-1.63,43,43,0,0,0,.7-9.39c-.16-11-2.67-62.13-2.67-62.13l-4.56-10.94s-9.59-10.14-9.64-22.89-3.1-64.18-3.1-64.18l-2.56-44.7,31.35-8.1s25.47,19.29,21.23,52.8A548.54,548.54,0,0,1,1189.51,398Z"/><path class="cls-20" d="M1155.12,498l-5.4,1.12q-.21-1.41-.57-3s.19-1,.49-2.75a19.27,19.27,0,0,0,4.38-.58c0,.16,0,.31,0,.47s0,.26,0,.39a3.62,3.62,0,0,0,.06.46,4.9,4.9,0,0,0,.11.65c0,.21.08.43.13.64C1154.59,496.35,1154.85,497.21,1155.12,498Z"/><path class="cls-24" d="M1149.15,496.19q.36,1.56.57,3s-8.09,7.95-16.71,4.17c2.92-2.4,6-5,7.65-6.67a12.61,12.61,0,0,0,2.63-4.17,20.28,20.28,0,0,0,6.35.95C1149.34,495.16,1149.15,496.19,1149.15,496.19Z"/><path class="cls-4" d="M1191.59,238.35c-.08.14-.14.32-.22.46-3.57,8.09-6.59,16.54-7.39,25.34-.53,5.72-.67,14.63.21,20.3,1.08,6.86.53,14.64-14.42,21.16-.63.28-1.29.56-2,.82-1,.37-4.63,1.4-5.61,1.61-2.13.42-4.3.74-6.48.95-4.91.49-10.06.46-14.76-1.22-4.49-1.62-6.52-4.08-7-8.88-.55-5.08-2-23-2.63-28-.22-1.8-.5-3.62-.89-5.4a25.35,25.35,0,0,0-3.59-8.9c-1.51-2.21-3.47-4.07-4.77-6.42-2.84-5-2.06-11.43.17-16.79s5.75-10.06,8.46-15.18c.28-.56.59-1.12.84-1.72.91-1.82,1.71-3.68,2.55-5.54a58.58,58.58,0,0,1,6.18-11.42c4-5.34,12-8.42,18.47-8.81,9.11-.53,17,5.72,24,11.57,1.2,1,2.39,2,3.54,3.12a5.59,5.59,0,0,1,.63.57,46,46,0,0,1,3.52,3.61c2.94,3.37,5.19,7.14,5.67,11.53C1196.77,227.13,1194,232.88,1191.59,238.35Z"/><path class="cls-25" d="M1169.73,181.8a9.41,9.41,0,0,0,7,1.71c8.23-1.29,10.49-11.68,6.85-18.13a7.9,7.9,0,0,0-9-4,9.85,9.85,0,0,0-5.43,4.22,15.11,15.11,0,0,0-2.19,6.61,13.48,13.48,0,0,0,0,2.84c.1.95.49,1.82.62,2.75A5.35,5.35,0,0,0,1169.73,181.8Z"/><path class="cls-21" d="M1169.13,180.08a7.37,7.37,0,0,0,7-1.27,8.36,8.36,0,0,0,3-6.57,9.69,9.69,0,0,0-2.95-6.66,5.72,5.72,0,0,0-3-1.69,6,6,0,0,0-4.61,1.74,9.27,9.27,0,0,0-3.42,7.94C1165.41,175.72,1166.89,179.28,1169.13,180.08Z"/><path class="cls-24" d="M1176.53,202a7.84,7.84,0,0,1-1,2.49,17.39,17.39,0,0,1-3.61,4,69.16,69.16,0,0,1-9.46,6.84c-1.65,1-3.33,1.93-5,2.8-3.79,1.93-8,3.54-12.17,2.84a7.21,7.21,0,0,1-2.41-.8,6.73,6.73,0,0,1-3-5.79,14.26,14.26,0,0,1,1.82-6.55c.14-.29.31-.6.45-.88,1.06-1.75,2.39-3.23,3.51-5,1.86-2.87,1.89-6.34,3.26-9.39a28,28,0,0,1,6.59-8.42c.18-.14.32-.28.49-.42,3.61-3.33,7.57-6.56,9.71-10.94,2,4.14,2.67,8.73,3.79,13.18a34.67,34.67,0,0,0,2.73,7.58,32.84,32.84,0,0,0,3,4.24C1176,199.09,1176.92,200.28,1176.53,202Z"/><path class="cls-20" d="M1176.53,202a7.84,7.84,0,0,1-1,2.49,17.39,17.39,0,0,1-3.61,4,69.16,69.16,0,0,1-9.46,6.84c0-.11,0-.18,0-.28a46.45,46.45,0,0,0-.87-19.39,15.83,15.83,0,0,0-2.84-6.17l-1-1.54a11.13,11.13,0,0,1-1.93-4.21c3.61-3.33,7.57-6.56,9.71-10.94,2,4.14,2.67,8.73,3.79,13.18a34.67,34.67,0,0,0,2.73,7.58,32.84,32.84,0,0,0,3,4.24C1176,199.09,1176.92,200.28,1176.53,202Z"/><path class="cls-24" d="M1165.45,175.84c-.42,3.16-1.47,6.63-4.31,8a1.62,1.62,0,0,0-.74.52,1.47,1.47,0,0,0-.1.56c-.11,1.65-.25,3.26-.35,4.91a5.86,5.86,0,0,1-.35,2,6.22,6.22,0,0,1-1.58,1.9,46.54,46.54,0,0,1-9.89,6.76,25.1,25.1,0,0,1-4.13,1.83c-1.93.63-4,.77-5.44-.49a11.32,11.32,0,0,1-1.85-2.39,8.19,8.19,0,0,0-2-2.24c-.63-.42-1.47-.88-1.44-1.61a1.94,1.94,0,0,1-1.64-1.37c-.14-.56,0-1.16-.35-1.61-.53-.71-1.62-.46-2.46-.64a2.49,2.49,0,0,1-1.72-1.47,3.63,3.63,0,0,1-.24-2.28,15.55,15.55,0,0,1,.67-2.07,10,10,0,0,0-.18-7.6c-.6-1.16-1.58-2.11-2.07-3.33a9.47,9.47,0,0,1-.49-3.93c.07-3.51,0-7.08.25-10.59.21-2.84,2.35-4.69,4.87-5.64a19.13,19.13,0,0,1,10.13-.91,14.37,14.37,0,0,1,8.56,5.29,7.46,7.46,0,0,1,.52.81c1.33,2.07,2.24,4.45,3.86,6.31a10.13,10.13,0,0,0,5.78,3.22c2.21.35,4.87.18,6.17,2A5.56,5.56,0,0,1,1165.45,175.84Z"/><path class="cls-20" d="M1165.45,175.84c-.42,3.16-1.47,6.63-4.31,8a1.62,1.62,0,0,0-.74.52,1.47,1.47,0,0,0-.1.56c-.11,1.65-.25,3.26-.35,4.91a5.86,5.86,0,0,1-.35,2,6.22,6.22,0,0,1-1.58,1.9,46.54,46.54,0,0,1-9.89,6.76,25.1,25.1,0,0,1-4.13,1.83,45.14,45.14,0,0,0,2.84-4.7,20.8,20.8,0,0,0-.42-18.76c-2.07-3.78-11.82-14.58-3.61-17.39a22.68,22.68,0,0,1,6.34-1.22c1.33,2.07,2.24,4.45,3.86,6.31a10.13,10.13,0,0,0,5.78,3.22c2.21.35,4.87.18,6.17,2A5.56,5.56,0,0,1,1165.45,175.84Z"/><path class="cls-25" d="M1168.81,178.3a10.38,10.38,0,0,1-2.91,3.94c-.1.11-.28.18-.38.11a.32.32,0,0,1-.15-.31c-.25-2.48.33-5.33-.69-7.7-.73-1.74-3.12-2.26-4.72-1.53a12.75,12.75,0,0,0-4.15,3.64c-1.48,1.75-3.71.59-5-.75-.75-.76-1.53-1.49-2.32-2.17-1.85-1.59-3.8-3-5.75-4.5-1-.72-2-1.4-3-2a27.92,27.92,0,0,0-5.55-2.64,33.1,33.1,0,0,0-4.79-1.32c-1.2-.22-4.21.14-4.52-1.54a10.76,10.76,0,0,1,2.11-8,35.78,35.78,0,0,1,8.59-8.42,20.54,20.54,0,0,1,10.7-3.86,21.83,21.83,0,0,1,13.7,3.52,26.88,26.88,0,0,1,3.41,2.5,25,25,0,0,1,6.56,8.48C1173.15,162.8,1172.1,171.51,1168.81,178.3Z"/><path class="cls-21" d="M1168.81,178.3a10.38,10.38,0,0,1-2.91,3.94c-.1.11-.28.18-.38.11a.32.32,0,0,1-.15-.31c-.25-2.48.33-5.33-.69-7.7-.73-1.74-3.12-2.26-4.72-1.53a12.75,12.75,0,0,0-4.15,3.64c-1.48,1.75-3.71.59-5-.75-.75-.76-1.53-1.49-2.32-2.17-1.85-1.59-3.8-3-5.75-4.5-1-.72-2-1.4-3-2a6,6,0,0,1,.8-.08,16.72,16.72,0,0,0,9.16-3.56,21.93,21.93,0,0,0,4.45-4.42,32.05,32.05,0,0,0,5.83-14.16,26.88,26.88,0,0,1,3.41,2.5,25,25,0,0,1,6.56,8.48C1173.15,162.8,1172.1,171.51,1168.81,178.3Z"/><path class="cls-21" d="M1160.86,263.73a17.08,17.08,0,0,1-12.88,6.59,16.1,16.1,0,0,1-8.86-2.34c-2.16-1.29-5.54-2.85-8.73-2.46a25.4,25.4,0,0,0-3.59-8.91s4.8,5.92,10.57,6.05a11.46,11.46,0,0,1,4.58,1.17C1145.19,265.35,1151.66,267.13,1160.86,263.73Z"/><path class="cls-4" d="M1130.39,265.52s-7.71,9-7.69,18.49c0,10.39,5.93,21.37,15.84,24,20.53,5.43,27.73-3.48,45.65-23.55l-41.57-8.84Z"/><path class="cls-21" d="M1191.59,238.35c-.08.14-.14.32-.22.46-3.57,8.09-6.59,16.54-7.39,25.34-.53,5.72-.67,14.63.21,20.3,1.08,6.86.53,14.64-14.42,21.16-1.49-10.86-2.74-21.79-2.61-32.77a130.48,130.48,0,0,1,11.7-52.13c1.67-3.59,4.34-11.09,9.12-11.35a8,8,0,0,1,2.42.25c2.94,3.37,5.19,7.14,5.67,11.53C1196.77,227.13,1194,232.88,1191.59,238.35Z"/><path class="cls-24" d="M1183.86,237.09l14.34,44.62L1165,295.65a13.56,13.56,0,0,1-6,1l-6.62-.41a8.18,8.18,0,0,0-1,0l-9.74.72a7.37,7.37,0,0,0-4.56,2L1133,303a4.61,4.61,0,0,0-1.44,3.35h0a4.64,4.64,0,0,0,2.69,4.21l3.82,1.77a7.42,7.42,0,0,0,3.6.67l10.87-.72a7.5,7.5,0,0,0,3-.85l8.4-4.46a13.35,13.35,0,0,1,4.57-1.45l28-3.64a23.17,23.17,0,0,0,16.33-9.84,16.46,16.46,0,0,0,3.07-9.28c0-7.66-13.53-51-13.53-51Z"/><path class="cls-4" d="M1204.66,235.22a3.17,3.17,0,0,1,0,1,3.33,3.33,0,0,1-.5,1.15c-1.84,2.76-5,4.33-8.18,5.41-.65.21-1.31.42-2,.6a34.65,34.65,0,0,1-5,1,30.5,30.5,0,0,1-5.49,0,6.6,6.6,0,0,1-4.08-1.37,6.82,6.82,0,0,1-1.45-2.37,50.78,50.78,0,0,1-3.15-10c-.69-3.76-.85-8.14.48-11.75a18.46,18.46,0,0,1,6.57-8.53,8.11,8.11,0,0,1,2-1c5.44-2.06,11.47,1.72,14.63,6.34C1202.28,221.28,1204,228.64,1204.66,235.22Z"/><path class="cls-21" d="M1204.66,235.22a3.17,3.17,0,0,1,0,1,3.33,3.33,0,0,1-.5,1.15c-1.84,2.76-5,4.33-8.18,5.41,0-1.14,0-2.33,0-3.46a56.38,56.38,0,0,0-2.91-17.58,26.58,26.58,0,0,0-3.83-7.75,14.46,14.46,0,0,0-3.69-3.54c-.53-.36-1.13-.7-1.7-1.05,5.44-2.06,11.47,1.72,14.63,6.34C1202.28,221.28,1204,228.64,1204.66,235.22Z"/><polygon class="cls-20" points="1326.87 325.88 1323.93 430.95 1347.7 433.81 1339.68 324.96 1326.87 325.88"/><path class="cls-4" d="M1346.38,330.58a2.12,2.12,0,0,1-.32.68,2.45,2.45,0,0,1-.7.61c-2.09,1.26-4.67,1.33-7.15,1-.5-.07-1-.13-1.5-.22a26,26,0,0,1-3.66-.87,22.6,22.6,0,0,1-3.67-1.71,4.83,4.83,0,0,1-2.29-2.19,5,5,0,0,1-.22-2,37.87,37.87,0,0,1,1-7.66,17.07,17.07,0,0,1,4-7.68,13.51,13.51,0,0,1,7.06-3.62,5.69,5.69,0,0,1,1.64-.06c4.27.33,7.11,4.74,7.76,8.82C1349.17,320.55,1348,326,1346.38,330.58Z"/><path class="cls-21" d="M1346.38,330.58a2.12,2.12,0,0,1-.32.68,2.45,2.45,0,0,1-.7.61c-2.09,1.26-4.67,1.33-7.15,1,.37-.76.76-1.54,1.1-2.3a41.32,41.32,0,0,0,3.58-12.64,19.67,19.67,0,0,0-.12-6.36,10.77,10.77,0,0,0-1.34-3.52c-.25-.41-.54-.82-.81-1.23,4.27.33,7.11,4.74,7.76,8.82C1349.17,320.55,1348,326,1346.38,330.58Z"/><path class="cls-22" d="M1359.93,541.89c.06,2.54,0,5.17-.16,7.84-1.28,21.54-9,45.87-9.73,50.71a8.87,8.87,0,0,0-.09,1.63,19.67,19.67,0,0,1-10.73-.37,25.06,25.06,0,0,0,1.62-6.92s-3.54-51.21-3.78-57.58-6.36-17.46-6.36-17.46c-2.37-3.54-5.91-11.8-5.91-11.8-5.19-15.11-6.37-70.32-4.48-81.65a139.73,139.73,0,0,1,5.9-22.18l36.44-2.17s-4.45,85.41-3.72,122.1c.09,5.08.3,9.23.62,12.09.07.57.12,1.15.17,1.73.1,1.18.16,2.38.19,3.61,0,.24,0,.37,0,.37Z"/><path class="cls-4" d="M1350,614.83c-1.49.55-3,1.19-4.41,1.83-3.46,1.57-6.21,3.13-6.21,3.13-5.66,3.78-17,6.61-18.87,4s1.17-5.43,1.17-5.43,3.49-2.74,7.22-5.83c8.62,3.78,16.71-4.18,16.71-4.18l5.4-1.11C1352.14,610.72,1353.24,613.67,1350,614.83Z"/><path class="cls-7" d="M1351.05,607.25c1.09,3.47,2.19,6.42-1,7.58-1.49.55-3,1.19-4.41,1.83a25.4,25.4,0,0,0,0-8.3Z"/><path class="cls-23" d="M1359.93,541.84v0l-.16,7.84c-1.28,21.54-9,45.87-9.73,50.71a8.87,8.87,0,0,0-.09,1.63,19.22,19.22,0,0,1-4.37.57c1-5.52,3.15-18.11,4.23-26,1.29-9.52,2.79-32.32-2.42-48.41a52.49,52.49,0,0,1-2.29-12c-.37-4.67-.85-11.66-1.39-21.67-2.65-48.38-8-57.58-8-57.58s13.24-.16,17.33,23.59c2.63,15.29,4.74,44.59,5.9,63.54.35,5.82.63,10.66.79,13.82.1,1.79.16,3,.19,3.61C1359.92,541.71,1359.93,541.84,1359.93,541.84Z"/><path class="cls-4" d="M1378.36,627.74s-3.77,8-9.75,12.1c-4.26,2.92-12.52,2.88-16.91,2.62a3.9,3.9,0,0,1-3.45-5.26,7.91,7.91,0,0,1,2.42-3.17c2-1.7,4.66-4.2,7.06-6.54,0,.31-.6,6.37,8.35,3.16,9.21-3.31,11-9.52,11-9.52Z"/><path class="cls-24" d="M1377.07,621.13s-1.78,6.21-11,9.52c-8.95,3.21-8.39-2.85-8.35-3.16,3.39-3.34,6.31-6.36,6.31-6.36s.86-.8,1.5-3.84a7.69,7.69,0,0,0,3.46,1.64c5.45.89,7.16-2.53,7.16-2.53Z"/><path class="cls-22" d="M1385.44,507.23s-2.83,11.8.47,23.13,3.78,25,.47,41.52-10.22,44.52-10.22,44.52-1.71,3.42-7.16,2.53a7.69,7.69,0,0,1-3.46-1.64,42.21,42.21,0,0,0,.7-9.38c-.16-11-2.67-62.14-2.67-62.14L1359,534.84s-9.59-10.15-9.64-22.89-3.1-64.18-3.1-64.18l-2.56-44.7,32.84-11.37s24,22.56,19.74,56.06A547.94,547.94,0,0,1,1385.44,507.23Z"/><path class="cls-20" d="M1351.05,607.25l-5.4,1.11c-.14-.93-.32-1.92-.56-3,0,0,.18-1,.49-2.76a19.22,19.22,0,0,0,4.37-.57c0,.16,0,.3,0,.46a2.6,2.6,0,0,0,0,.4,3.47,3.47,0,0,0,.06.45c0,.22.06.44.11.66s.08.42.13.64C1350.52,605.55,1350.78,606.41,1351.05,607.25Z"/><path class="cls-24" d="M1345.09,605.4c.24,1,.42,2,.56,3,0,0-8.09,8-16.71,4.18,2.92-2.4,6-5,7.65-6.67a12.71,12.71,0,0,0,2.63-4.17,20.36,20.36,0,0,0,6.36.94C1345.27,604.36,1345.09,605.4,1345.09,605.4Z"/><path class="cls-4" d="M1391.51,348.93c-.07.15-.13.33-.21.47-3.58,8.1-6.59,16.54-7.39,25.34-.53,5.72-.67,14.63.21,20.29,0,0,0,.06,0,.09,1.06,6.85.44,14.58-14.45,21.08-.62.28-1.28.56-2,.82-.94.38-4.62,1.4-5.6,1.61-2.13.41-4.31.74-6.48.94-4.91.49-10.06.47-14.77-1.22-4.48-1.62-6.51-4.07-7-8.87-.55-5.08-2-23-2.63-28-.23-1.79-.5-3.61-.89-5.39a33.92,33.92,0,0,0-1.13-4h0a21.74,21.74,0,0,0-2.45-4.92c-.21-.31-.42-.61-.65-.9a46.85,46.85,0,0,1-4.12-5.52c-2.84-5.05-2.07-11.43.17-16.79s5.75-10.06,8.46-15.18c.28-.56.59-1.12.84-1.72.9-1.83,1.71-3.69,2.55-5.54a58.87,58.87,0,0,1,6.18-11.42c3.95-5.34,12-8.43,18.47-8.81,9.12-.53,17,5.71,24,11.57,1.19,1,2.39,2,3.54,3.12a6.62,6.62,0,0,1,.63.57,46,46,0,0,1,3.52,3.61c2.94,3.37,5.19,7.13,5.67,11.52C1396.7,337.72,1393.93,343.47,1391.51,348.93Z"/><path class="cls-25" d="M1370,295a9.4,9.4,0,0,0,5.83,4.19c8.13,1.86,14.09-6.94,13.11-14.28a7.9,7.9,0,0,0-6.87-7.12,9.88,9.88,0,0,0-6.62,1.89A15.15,15.15,0,0,0,1371,285a13.67,13.67,0,0,0-1.09,2.62c-.26.92-.21,1.87-.44,2.78A5.37,5.37,0,0,0,1370,295Z"/><path class="cls-21" d="M1370.07,293.2a7.42,7.42,0,0,0,7,1.43,8.39,8.39,0,0,0,5.2-5,9.69,9.69,0,0,0-.26-7.27,5.67,5.67,0,0,0-2.18-2.69,5.94,5.94,0,0,0-4.92-.1,9.27,9.27,0,0,0-6.13,6.09C1368.24,287.76,1368.29,291.62,1370.07,293.2Z"/><path class="cls-24" d="M1376.46,312.62a8.08,8.08,0,0,1-1,2.49,17.39,17.39,0,0,1-3.61,4,70,70,0,0,1-9.46,6.84c-1.65,1-3.33,1.92-5,2.8-3.79,1.93-8,3.54-12.17,2.84a7.36,7.36,0,0,1-2.42-.81,6.74,6.74,0,0,1-3-5.78,14.47,14.47,0,0,1,1.83-6.56l.45-.87c1-1.76,2.39-3.23,3.51-5,1.86-2.88,1.44-10.5,2.8-13.55,1.51-3.26,4.45-1.84,7-4.26.17-.14.31-.28.49-.42,3.61-3.33,7.57-6.56,9.71-10.94,2,4.14,2.67,8.73,3.79,13.18a33.9,33.9,0,0,0,2.73,7.57,31.33,31.33,0,0,0,3,4.25C1376,309.67,1376.84,310.87,1376.46,312.62Z"/><path class="cls-20" d="M1376.46,312.62a8.08,8.08,0,0,1-1,2.49,17.39,17.39,0,0,1-3.61,4,70,70,0,0,1-9.46,6.84c0-.11,0-.18,0-.28a46.28,46.28,0,0,0-.88-19.39,15.55,15.55,0,0,0-2.84-6.17l-.94-1.54a11.2,11.2,0,0,1-1.93-4.21c3.61-3.33,7.57-6.56,9.71-10.94,2,4.14,2.67,8.73,3.79,13.18a33.9,33.9,0,0,0,2.73,7.57,31.33,31.33,0,0,0,3,4.25C1376,309.67,1376.84,310.87,1376.46,312.62Z"/><path class="cls-24" d="M1368.24,287.89c-1.57,2.78-3.83,5.61-7,5.82a1.59,1.59,0,0,0-.88.21,1.39,1.39,0,0,0-.3.48c-.71,1.49-1.45,2.94-2.16,4.43a5.68,5.68,0,0,1-1.08,1.75,6,6,0,0,1-2.17,1.17,46.15,46.15,0,0,1-11.69,2.6,25,25,0,0,1-4.52.16c-2-.14-4-.76-4.86-2.48a11.29,11.29,0,0,1-.84-2.91,7.9,7.9,0,0,0-1-2.81c-.43-.62-1-1.36-.74-2a1.91,1.91,0,0,1-1-1.88c.08-.58.4-1.09.28-1.63-.23-.85-1.33-1-2-1.5a2.49,2.49,0,0,1-1-2,3.55,3.55,0,0,1,.62-2.2,15.38,15.38,0,0,1,1.39-1.67,10,10,0,0,0,2.66-7.13c-.12-1.29-.68-2.54-.68-3.86a9.29,9.29,0,0,1,1-3.83c1.37-3.23,2.6-6.58,4.17-9.73,1.25-2.56,3.93-3.49,6.62-3.43a19.28,19.28,0,0,1,9.75,2.93,14.28,14.28,0,0,1,6,8.09,5.16,5.16,0,0,1,.19.95c.47,2.41.43,5,1.23,7.29a10.23,10.23,0,0,0,4.17,5.15c1.92,1.15,4.46,2,5,4.18A5.57,5.57,0,0,1,1368.24,287.89Z"/><path class="cls-20" d="M1368.24,287.89c-1.57,2.78-3.83,5.61-7,5.82a1.59,1.59,0,0,0-.88.21,1.39,1.39,0,0,0-.3.48c-.71,1.49-1.45,2.94-2.16,4.43a5.68,5.68,0,0,1-1.08,1.75,6,6,0,0,1-2.17,1.17,46.15,46.15,0,0,1-11.69,2.6,25,25,0,0,1-4.52.16,43.33,43.33,0,0,0,4.38-3.31,20.78,20.78,0,0,0,6.6-17.56c-.51-4.29-5.54-17.93,3.12-17.48a22.67,22.67,0,0,1,6.34,1.22c.47,2.41.43,5,1.23,7.29a10.23,10.23,0,0,0,4.17,5.15c1.92,1.15,4.46,2,5,4.18A5.57,5.57,0,0,1,1368.24,287.89Z"/><path class="cls-25" d="M1370.44,291.43a10.47,10.47,0,0,1-4.17,2.57c-.13.06-.32.07-.39,0a.32.32,0,0,1,0-.34c.69-2.4,2.29-4.83,2.22-7.41,0-1.89-2.06-3.26-3.81-3.18a12.89,12.89,0,0,0-5.21,1.84c-2,1.07-3.66-.83-4.35-2.56-.41-1-.87-1.95-1.34-2.88-1.13-2.15-2.41-4.21-3.67-6.31a33.77,33.77,0,0,0-2-3,27.59,27.59,0,0,0-4.17-4.52,32.54,32.54,0,0,0-4-3c-1-.65-4-1.43-3.61-3.11a10.66,10.66,0,0,1,4.92-6.6,35.74,35.74,0,0,1,11.1-4.62,20.46,20.46,0,0,1,11.37.4,22.81,22.81,0,0,1,9.55,6,20.68,20.68,0,0,1,1.85,2.32,26.6,26.6,0,0,1,2.24,3.59,25,25,0,0,1,2.93,10.31C1380.23,278.65,1376,286.35,1370.44,291.43Z"/><path class="cls-21" d="M1370.44,291.43a10.47,10.47,0,0,1-4.17,2.57c-.13.06-.32.07-.39,0a.32.32,0,0,1,0-.34c.69-2.4,2.29-4.83,2.22-7.41,0-1.89-2.06-3.26-3.81-3.18a12.89,12.89,0,0,0-5.21,1.84c-2,1.07-3.66-.83-4.35-2.56-.41-1-.87-1.95-1.34-2.88-1.13-2.15-2.41-4.21-3.67-6.31a33.77,33.77,0,0,0-2-3,5,5,0,0,1,.77.22,16.72,16.72,0,0,0,9.83.11,22.35,22.35,0,0,0,5.78-2.45,32,32,0,0,0,10.67-11,26.6,26.6,0,0,1,2.24,3.59,25,25,0,0,1,2.93,10.31C1380.23,278.65,1376,286.35,1370.44,291.43Z"/><path class="cls-21" d="M1356.72,370.23a17.05,17.05,0,0,1-12.88,6.58,16,16,0,0,1-8.86-2.34,18.63,18.63,0,0,0-5.78-2.33h0a21.74,21.74,0,0,0-2.45-4.92c-.21-.31-.42-.61-.65-.9a12.87,12.87,0,0,0,7.15,2.85,11.61,11.61,0,0,1,4.58,1.16C1341.05,371.85,1347.52,373.63,1356.72,370.23Z"/><path class="cls-4" d="M1375.81,425.15c-8.14,8.16-22,13-42.6,8.66-10-2.09-23.73-15.66-18-38.85,2.26-9.07,13.45-22.37,13.92-22.82h0l13.35,14.06,25.46,5.41,16.1,3.43,0,.08a26.89,26.89,0,0,1,.66,3.4A32.16,32.16,0,0,1,1375.81,425.15Z"/><path class="cls-21" d="M1391.51,348.93c-.07.15-.13.33-.21.47-3.58,8.1-6.59,16.54-7.39,25.34-.53,5.72-.67,14.63.21,20.29,0,0,0,.06,0,.09.13.81.37,2,.66,3.4a32.16,32.16,0,0,1-9,26.63c-2.79-11.16-6.2-24.39-7.8-33.54a48.88,48.88,0,0,1-.93-8.18,130.82,130.82,0,0,1,11.7-52.13c1.68-3.59,4.35-11.09,9.13-11.35a7.73,7.73,0,0,1,2.42.25c2.94,3.37,5.19,7.13,5.67,11.52C1396.7,337.72,1393.93,343.47,1391.51,348.93Z"/><path class="cls-24" d="M1382.86,343.68l6.57,47.51-41.72-12.3-17-.69-8.58,4.62a2.94,2.94,0,0,0-.91,3.52h0a3,3,0,0,0,3.39,1.7l4.89-1.16a23.92,23.92,0,0,0,19.13.61l45.57,22.63s16.88,5.12,16.14-13.23l-9-55.51Z"/><path class="cls-4" d="M1404.59,345.81a3.17,3.17,0,0,1,0,1,3.33,3.33,0,0,1-.5,1.15c-1.84,2.75-5,4.33-8.18,5.41-.66.21-1.31.42-2,.59a33.5,33.5,0,0,1-5,1,30.38,30.38,0,0,1-5.48,0,6.6,6.6,0,0,1-4.08-1.37,6.77,6.77,0,0,1-1.45-2.38,51.61,51.61,0,0,1-3.16-10c-.68-3.76-.84-8.14.49-11.76a18.37,18.37,0,0,1,6.57-8.52,7.93,7.93,0,0,1,2-1c5.44-2.06,11.47,1.72,14.63,6.34C1402.21,331.87,1403.94,339.23,1404.59,345.81Z"/><path class="cls-21" d="M1404.59,345.81a3.17,3.17,0,0,1,0,1,3.33,3.33,0,0,1-.5,1.15c-1.84,2.75-5,4.33-8.18,5.41,0-1.14,0-2.33,0-3.46a56.22,56.22,0,0,0-2.92-17.59,26.37,26.37,0,0,0-3.82-7.74,15,15,0,0,0-3.69-3.55c-.53-.35-1.13-.69-1.7-1,5.44-2.06,11.47,1.72,14.63,6.34C1402.21,331.87,1403.94,339.23,1404.59,345.81Z"/><path class="cls-24" d="M1317.7,421.23l.66,11.61a3.85,3.85,0,0,0,2.59,3.42l4.8,1.65a3.84,3.84,0,0,0,4.89-2.38l1.67-4.83a3.77,3.77,0,0,0-2-4.64h0a3.76,3.76,0,0,0-3.7.27l-.8.53a3.38,3.38,0,0,1-4.48-.67A42.45,42.45,0,0,1,1317.7,421.23Z"/><polygon class="cls-20" points="1519.65 434.44 1516.71 539.51 1540.48 542.37 1532.46 433.52 1519.65 434.44"/><path class="cls-4" d="M1539.16,439.15a2.25,2.25,0,0,1-.33.68,2.56,2.56,0,0,1-.69.61c-2.09,1.25-4.67,1.32-7.15,1-.5-.06-1-.13-1.5-.22a25.06,25.06,0,0,1-3.67-.87,22.45,22.45,0,0,1-3.66-1.7,3.83,3.83,0,0,1-2.51-4.24,37.87,37.87,0,0,1,1-7.66,17.07,17.07,0,0,1,4-7.68,13.51,13.51,0,0,1,7.06-3.62,5.69,5.69,0,0,1,1.64-.06c4.27.34,7.1,4.75,7.76,8.82C1542,429.11,1540.8,434.56,1539.16,439.15Z"/><path class="cls-21" d="M1539.16,439.15a2.25,2.25,0,0,1-.33.68,2.56,2.56,0,0,1-.69.61c-2.09,1.25-4.67,1.32-7.15,1,.36-.75.76-1.53,1.1-2.29a41.32,41.32,0,0,0,3.58-12.64,19.73,19.73,0,0,0-.12-6.37,11.09,11.09,0,0,0-1.34-3.52c-.25-.41-.54-.82-.81-1.23,4.27.34,7.1,4.75,7.76,8.82C1542,429.11,1540.8,434.56,1539.16,439.15Z"/><path class="cls-22" d="M1552.71,650.46c.06,2.54,0,5.16-.16,7.83-1.28,21.55-9,45.87-9.73,50.72a8.76,8.76,0,0,0-.09,1.62,19.48,19.48,0,0,1-10.73-.37,25.06,25.06,0,0,0,1.62-6.92s-3.54-51.21-3.78-57.58-6.37-17.46-6.37-17.46c-2.36-3.54-5.9-11.8-5.9-11.8-5.19-15.1-6.37-70.32-4.48-81.65a139.73,139.73,0,0,1,5.9-22.18l36.44-2.16s-4.45,85.41-3.72,122.09c.09,5.08.3,9.23.62,12.09.06.57.12,1.15.17,1.74.1,1.17.16,2.37.19,3.6,0,.24,0,.37,0,.37Z"/><path class="cls-4" d="M1542.82,723.4c-1.49.54-3,1.18-4.41,1.83-3.46,1.57-6.21,3.12-6.21,3.12-5.66,3.78-17,6.61-18.87,4s1.17-5.42,1.17-5.42,3.48-2.75,7.22-5.83c8.62,3.78,16.71-4.18,16.71-4.18l5.4-1.12C1544.92,719.28,1546,722.23,1542.82,723.4Z"/><path class="cls-7" d="M1543.83,715.81c1.09,3.47,2.19,6.42-1,7.59-1.49.54-3,1.18-4.41,1.83a25.69,25.69,0,0,0,0-8.3Z"/><path class="cls-23" d="M1552.71,650.4v.06l-.16,7.83c-1.28,21.55-9,45.87-9.73,50.72a8.76,8.76,0,0,0-.09,1.62,19.27,19.27,0,0,1-4.38.58c1-5.53,3.16-18.12,4.24-26,1.29-9.52,2.79-32.32-2.42-48.41a53,53,0,0,1-2.3-12c-.36-4.67-.84-11.67-1.38-21.68-2.66-48.37-8-57.58-8-57.58s13.25-.16,17.34,23.6c2.63,15.28,4.74,44.58,5.9,63.53.35,5.82.63,10.67.79,13.83.1,1.78.16,3,.19,3.6C1552.7,650.27,1552.71,650.4,1552.71,650.4Z"/><path class="cls-4" d="M1571.14,736.3s-3.77,8-9.75,12.11c-4.27,2.92-12.52,2.88-16.91,2.61a3.9,3.9,0,0,1-3.45-5.26,8,8,0,0,1,2.42-3.17c2-1.7,4.66-4.19,7.06-6.54,0,.31-.6,6.38,8.35,3.16,9.21-3.31,11-9.52,11-9.52Z"/><path class="cls-24" d="M1569.85,729.69s-1.78,6.21-11,9.52c-8.95,3.22-8.39-2.85-8.35-3.16,3.39-3.34,6.31-6.36,6.31-6.36s.86-.79,1.5-3.83a7.64,7.64,0,0,0,3.45,1.63c5.46.89,7.17-2.52,7.17-2.52Z"/><path class="cls-22" d="M1578.22,615.8s-2.83,11.79.47,23.12,3.78,25,.47,41.53S1568.94,725,1568.94,725s-1.71,3.41-7.17,2.52a7.64,7.64,0,0,1-3.45-1.63,42.37,42.37,0,0,0,.7-9.39c-.16-11-2.67-62.13-2.67-62.13l-4.56-10.94s-9.59-10.14-9.64-22.89-3.1-64.18-3.1-64.18l-2.56-44.69,32.84-11.38s24,22.56,19.74,56.07A548.54,548.54,0,0,1,1578.22,615.8Z"/><path class="cls-20" d="M1543.83,715.81l-5.4,1.12c-.14-.94-.33-1.92-.57-3,0,0,.19-1,.49-2.75a19.27,19.27,0,0,0,4.38-.58c0,.16,0,.31,0,.47s0,.26,0,.39a3.62,3.62,0,0,0,.06.46,4.9,4.9,0,0,0,.11.65c0,.21.08.43.13.64C1543.3,714.12,1543.56,715,1543.83,715.81Z"/><path class="cls-24" d="M1537.86,714c.24,1,.43,2,.57,3,0,0-8.09,8-16.71,4.18,2.92-2.41,6-5,7.65-6.68a12.61,12.61,0,0,0,2.63-4.17,20.28,20.28,0,0,0,6.35,1C1538.05,712.93,1537.86,714,1537.86,714Z"/><path class="cls-4" d="M1584.29,457.5c-.07.14-.13.32-.21.46-3.58,8.1-6.59,16.55-7.39,25.34-.53,5.72-.68,14.63.21,20.3a.28.28,0,0,1,0,.09c1.06,6.84.45,14.58-14.44,21.07-.62.28-1.29.56-2,.83-.94.37-4.62,1.39-5.6,1.6-2.14.42-4.31.74-6.49.95-4.9.48-10.05.46-14.76-1.22-4.48-1.62-6.51-4.08-7-8.88-.56-5.08-2-22.95-2.63-28-.23-1.8-.5-3.62-.89-5.4a33.22,33.22,0,0,0-1.13-4v0a22,22,0,0,0-2.45-4.92c-.21-.31-.43-.6-.65-.89a49,49,0,0,1-4.13-5.52c-2.84-5.06-2.06-11.43.18-16.79s5.75-10.07,8.46-15.19c.28-.56.59-1.12.83-1.72.91-1.82,1.72-3.68,2.56-5.53a58.61,58.61,0,0,1,6.17-11.43c4-5.34,12-8.42,18.48-8.81,9.11-.53,17,5.72,24,11.57,1.19,1,2.39,2,3.54,3.12.21.18.42.36.63.57a47.85,47.85,0,0,1,3.52,3.61c2.94,3.37,5.18,7.14,5.66,11.53C1589.48,446.28,1586.7,452,1584.29,457.5Z"/><path class="cls-25" d="M1562.77,403.58a9.39,9.39,0,0,0,5.83,4.18c8.13,1.87,14.09-6.94,13.11-14.27a7.91,7.91,0,0,0-6.87-7.13,9.93,9.93,0,0,0-6.62,1.89,15.24,15.24,0,0,0-4.49,5.33,13.94,13.94,0,0,0-1.09,2.62c-.26.92-.21,1.87-.44,2.78A5.36,5.36,0,0,0,1562.77,403.58Z"/><path class="cls-21" d="M1562.85,401.76a7.35,7.35,0,0,0,7,1.43,8.4,8.4,0,0,0,5.21-5,9.71,9.71,0,0,0-.26-7.28,5.73,5.73,0,0,0-2.18-2.69,6,6,0,0,0-4.93-.1,9.25,9.25,0,0,0-6.12,6.09C1561,396.32,1561.07,400.18,1562.85,401.76Z"/><path class="cls-24" d="M1569.24,421.18a8.08,8.08,0,0,1-1,2.49,17.41,17.41,0,0,1-3.61,4,69.26,69.26,0,0,1-9.47,6.84c-1.64,1-3.33,1.93-5,2.8-3.79,1.93-8,3.54-12.17,2.84a7.34,7.34,0,0,1-2.42-.8,6.75,6.75,0,0,1-3-5.79,14.51,14.51,0,0,1,1.82-6.55c.15-.28.32-.6.46-.88,1-1.75,2.38-3.22,3.51-5,1.85-2.87,1.43-10.5,2.8-13.55,1.51-3.26,4.45-1.84,7-4.26.17-.14.31-.28.49-.42,3.61-3.33,7.57-6.55,9.71-10.94,2,4.14,2.66,8.73,3.79,13.19a34.08,34.08,0,0,0,2.73,7.57,31.24,31.24,0,0,0,3,4.24C1568.75,418.24,1569.62,419.43,1569.24,421.18Z"/><path class="cls-20" d="M1569.24,421.18a8.08,8.08,0,0,1-1,2.49,17.41,17.41,0,0,1-3.61,4,69.26,69.26,0,0,1-9.47,6.84c0-.11,0-.18,0-.28a46.29,46.29,0,0,0-.88-19.39,15.62,15.62,0,0,0-2.84-6.17l-.94-1.54a11.13,11.13,0,0,1-1.93-4.21c3.61-3.33,7.57-6.55,9.71-10.94,2,4.14,2.66,8.73,3.79,13.19a34.08,34.08,0,0,0,2.73,7.57,31.24,31.24,0,0,0,3,4.24C1568.75,418.24,1569.62,419.43,1569.24,421.18Z"/><path class="cls-24" d="M1561,396.46c-1.57,2.77-3.84,5.6-7,5.81a1.6,1.6,0,0,0-.88.22,1.37,1.37,0,0,0-.31.48c-.71,1.49-1.44,2.93-2.15,4.42a5.61,5.61,0,0,1-1.08,1.76,6.32,6.32,0,0,1-2.17,1.17,46.78,46.78,0,0,1-11.69,2.6,26.08,26.08,0,0,1-4.52.15c-2-.13-4-.76-4.86-2.48a11.11,11.11,0,0,1-.84-2.9,8.11,8.11,0,0,0-1-2.81c-.43-.63-1-1.37-.73-2a1.91,1.91,0,0,1-1-1.88c.08-.57.4-1.09.27-1.63-.22-.84-1.32-1-2-1.5a2.46,2.46,0,0,1-1-2,3.6,3.6,0,0,1,.62-2.21A16.51,16.51,0,0,1,1522,392a10,10,0,0,0,2.67-7.13c-.12-1.29-.68-2.54-.68-3.86a9.24,9.24,0,0,1,1-3.82c1.37-3.23,2.6-6.59,4.17-9.74,1.25-2.56,3.93-3.48,6.62-3.42a19.1,19.1,0,0,1,9.74,2.92,14.29,14.29,0,0,1,6,8.1,5.8,5.8,0,0,1,.19.94c.47,2.42.43,5,1.23,7.3a10.16,10.16,0,0,0,4.17,5.14c1.92,1.15,4.46,2,5,4.19A5.58,5.58,0,0,1,1561,396.46Z"/><path class="cls-20" d="M1561,396.46c-1.57,2.77-3.84,5.6-7,5.81a1.6,1.6,0,0,0-.88.22,1.37,1.37,0,0,0-.31.48c-.71,1.49-1.44,2.93-2.15,4.42a5.61,5.61,0,0,1-1.08,1.76,6.32,6.32,0,0,1-2.17,1.17,46.78,46.78,0,0,1-11.69,2.6,26.08,26.08,0,0,1-4.52.15,41.81,41.81,0,0,0,4.38-3.3,20.76,20.76,0,0,0,6.59-17.57c-.51-4.28-5.53-17.93,3.12-17.48a23.1,23.1,0,0,1,6.35,1.22c.47,2.42.43,5,1.23,7.3a10.16,10.16,0,0,0,4.17,5.14c1.92,1.15,4.46,2,5,4.19A5.58,5.58,0,0,1,1561,396.46Z"/><path class="cls-25" d="M1563.22,400a10.47,10.47,0,0,1-4.17,2.57.34.34,0,0,1-.4,0,.36.36,0,0,1,0-.35c.69-2.4,2.29-4.83,2.22-7.4,0-1.89-2.06-3.27-3.81-3.19a12.76,12.76,0,0,0-5.21,1.85c-2,1.06-3.66-.84-4.35-2.57-.41-1-.87-1.94-1.34-2.87-1.13-2.16-2.41-4.22-3.67-6.32a33.17,33.17,0,0,0-2-3,27.9,27.9,0,0,0-4.16-4.52,35.62,35.62,0,0,0-4-3c-1-.65-3.95-1.43-3.62-3.1a10.71,10.71,0,0,1,4.93-6.6,35.41,35.41,0,0,1,11.1-4.62,20.46,20.46,0,0,1,11.37.39,22.91,22.91,0,0,1,9.55,6.05,22.66,22.66,0,0,1,1.85,2.32,26.16,26.16,0,0,1,2.23,3.59,24.82,24.82,0,0,1,2.94,10.31C1573,387.22,1568.8,394.91,1563.22,400Z"/><path class="cls-21" d="M1563.22,400a10.47,10.47,0,0,1-4.17,2.57.34.34,0,0,1-.4,0,.36.36,0,0,1,0-.35c.69-2.4,2.29-4.83,2.22-7.4,0-1.89-2.06-3.27-3.81-3.19a12.76,12.76,0,0,0-5.21,1.85c-2,1.06-3.66-.84-4.35-2.57-.41-1-.87-1.94-1.34-2.87-1.13-2.16-2.41-4.22-3.67-6.32a33.17,33.17,0,0,0-2-3c.28.07.55.14.78.22a16.64,16.64,0,0,0,9.83.11,21.8,21.8,0,0,0,5.77-2.45,32,32,0,0,0,10.68-11,26.16,26.16,0,0,1,2.23,3.59,24.82,24.82,0,0,1,2.94,10.31C1573,387.22,1568.8,394.91,1563.22,400Z"/><path class="cls-21" d="M1549.5,478.79a17,17,0,0,1-12.88,6.59,16.1,16.1,0,0,1-8.86-2.34,18.39,18.39,0,0,0-5.78-2.33h0v0a22,22,0,0,0-2.45-4.92c-.21-.31-.43-.6-.65-.89a12.86,12.86,0,0,0,7.15,2.84,11.61,11.61,0,0,1,4.58,1.16C1533.83,480.41,1540.3,482.19,1549.5,478.79Z"/><path class="cls-4" d="M1569.06,548.72c-.46.28-.91.58-1.36.87-10.41,6.67-21.2,14.43-39.22,11.26-5.64-1-14.64-3.5-21.57-10.57-7.52-7.67-12.59-20.73-8.31-43.06,3.61-18.83,22.87-26.06,23.34-26.51l0,0v0l13.36,14.05,25.45,5.42,16.11,3.42a.24.24,0,0,1,0,.09,25.24,25.24,0,0,1,.67,3.4c.34,2.49,6,10.71,7.26,14C1588.79,531.52,1579.12,542.37,1569.06,548.72Z"/><path class="cls-21" d="M1584.84,521.12c4,10.4-5.72,21.25-15.78,27.6-.46.28-.91.58-1.36.87,9.39-27.49-5.76-42.8-6.92-49.41a49.86,49.86,0,0,1-.92-8.19,130.53,130.53,0,0,1,11.71-52.13c1.67-3.59,4.34-11.09,9.12-11.35a8.37,8.37,0,0,1,2.42.25c2.94,3.37,5.19,7.14,5.67,11.52.7,6-2.07,11.75-4.48,17.21-.08.16-.15.34-.22.47-3.57,8.1-6.59,16.55-7.39,25.34-.53,5.72-.67,14.63.21,20.29a.31.31,0,0,1,0,.1,25.24,25.24,0,0,1,.67,3.4C1577.92,509.58,1583.58,517.8,1584.84,521.12Z"/><path class="cls-24" d="M1505.52,492.81l-2.37-.64a5.3,5.3,0,0,0-6.53,3.8l-1.21,4.73a7.44,7.44,0,0,0,.63,5.3l2,3.7a3.36,3.36,0,0,0,5.33.82l2.34-2.31a3.38,3.38,0,0,0,1-2.39V495.5Z"/><path class="cls-24" d="M1508.41,489.72a5.91,5.91,0,0,0-6.43,3.35l1.22,2.6Z"/><path class="cls-24" d="M1574.91,458.17l14.33,44.63-33.17,13.94a13.37,13.37,0,0,1-6,1l-6.62-.41a8.18,8.18,0,0,0-1,0l-9.74.71a7.38,7.38,0,0,0-4.55,2L1524,524a4.63,4.63,0,0,0-1.43,3.35h0a4.63,4.63,0,0,0,2.68,4.21l3.82,1.77a7.48,7.48,0,0,0,3.61.67l10.87-.71a7.5,7.5,0,0,0,3-.85L1555,528a13.51,13.51,0,0,1,4.57-1.46l28.06-3.64a23.17,23.17,0,0,0,16.32-9.83,16.46,16.46,0,0,0,3.07-9.29c0-7.65-13.53-51-13.53-51Z"/><path class="cls-4" d="M1597.37,454.37a3.24,3.24,0,0,1,0,1,3.31,3.31,0,0,1-.51,1.14c-1.83,2.76-5,4.34-8.18,5.41-.65.21-1.3.42-2,.6a36.52,36.52,0,0,1-5,1.05,29.5,29.5,0,0,1-5.48,0,6.48,6.48,0,0,1-4.08-1.37,6.73,6.73,0,0,1-1.45-2.37,50.81,50.81,0,0,1-3.16-10c-.68-3.76-.84-8.14.49-11.75a18.39,18.39,0,0,1,6.57-8.53,8.06,8.06,0,0,1,2-1c5.44-2.06,11.47,1.71,14.63,6.34C1595,440.44,1596.72,447.8,1597.37,454.37Z"/><path class="cls-21" d="M1597.37,454.37a3.24,3.24,0,0,1,0,1,3.31,3.31,0,0,1-.51,1.14c-1.83,2.76-5,4.34-8.18,5.41,0-1.14,0-2.32,0-3.45a55.87,55.87,0,0,0-2.91-17.59,26.55,26.55,0,0,0-3.82-7.75,15,15,0,0,0-3.69-3.54c-.53-.36-1.13-.7-1.7-1,5.44-2.06,11.47,1.71,14.63,6.34C1595,440.44,1596.72,447.8,1597.37,454.37Z"/><ellipse class="cls-26" cx="928.89" cy="664.47" rx="15.78" ry="9.11" transform="translate(-4.16 5.86) rotate(-0.36)"/><line class="cls-27" x1="903.86" y1="682.48" x2="669.88" y2="817.57"/><text class="cls-28" transform="matrix(0.87, -0.5, 0.87, 0.5, 657.52, 798.08)"><tspan class="cls-29">W</tspan><tspan x="29.25" y="0" xml:space="preserve">eek  1-13</tspan></text><ellipse class="cls-26" cx="1128.05" cy="791.25" rx="15.78" ry="9.11" transform="translate(-4.96 7.11) rotate(-0.36)"/><line class="cls-27" x1="1103.02" y1="809.25" x2="869.04" y2="944.34"/><text class="cls-28" transform="matrix(0.87, -0.5, 0.87, 0.5, 856.68, 924.86)"><tspan class="cls-29">W</tspan><tspan x="29.25" y="0" xml:space="preserve">eek  14-</tspan></text><ellipse class="cls-26" cx="1327.21" cy="918.02" rx="15.78" ry="9.11" transform="translate(-5.75 8.37) rotate(-0.36)"/><line class="cls-27" x1="1302.19" y1="936.03" x2="1068.21" y2="1071.12"/><text class="cls-28" transform="matrix(0.87, -0.5, 0.87, 0.5, 1055.85, 1051.63)"><tspan class="cls-29">W</tspan><tspan x="29.25" y="0" xml:space="preserve">eek  1-13</tspan></text><polygon class="cls-30" points="759.69 628.41 191.63 953.99 191.63 355.55 759.69 29.97 759.69 628.41"/><path class="cls-16" d="M692.91,107.88l-1.11.63-48.26,27.87-48.25,27.86L547,192.11,498.76,220,450.5,247.83l-48.23,27.84L354,303.54l-50.82,29.34.16,58.4.16,55.42.15,55.45.17,55.46.16,55.45.15,55.46L304.3,724l.15,55.46,48.27-27.87,2.56-1.48L401,723.69l2.56-1.47,45.69-26.39,2.54-1.45L497.5,668l2.53-1.46h0l45.72-26.39L594,612.25l2.54-1.47,45.73-26.4,2.53-1.46,45.72-26.4,2.38-1.38V496.69h0l-.15-52.55.16-.09v-2.92l-.17.1-.14-52.55.31-.18v-2.9l-.32.18-.16-52.55.48-.27v-2.92l-.49.28-.14-52.55.63-.36v-2.9l-.64.36-.15-52.54.79-.46V219l-.8.46-.14-52.5.94-.55v-2.94L692,164l-.08-26.26-.07-26.25,1.1-.64ZM305.76,334.35,351.46,308l.15,52.51-45.7,26.38Zm.16,55.45,45.7-26.39.15,52.52-45.71,26.38Zm.15,55.41,45.7-26.38.15,52.55-45.7,26.38Zm.16,55.46,45.7-26.38.15,52.54-45.7,26.39Zm.16,55.45,45.69-26.38.15,52.54-45.69,26.39Zm45.85,29.08.16,52.54-45.7,26.39-.15-52.55ZM306.7,667l45.7-26.37.15,52.53-45.7,26.39ZM307,775l-.15-52.5,45.7-26.38.15,52.51Zm47-468.5,45.71-26.39.14,52.51L354.17,359Zm.17,55.44,45.69-26.38.16,52.52-45.7,26.38Zm.16,55.42L400,391l.14,52.54-45.7,26.39Zm.15,55.46,45.7-26.38.15,52.54-45.7,26.39Zm.16,55.45,45.7-26.38.14,52.54-45.7,26.39Zm.15,55.46,45.7-26.38.15,52.54L355,636.27Zm.17,55.45,45.69-26.39.15,52.55-45.7,26.38Zm.3,108-.15-52.5,45.69-26.39.16,52.51Zm47-468.52L448,252.24l.15,52.51-45.7,26.38L402.35,305Zm.15,55.46,45.71-26.38.14,52.51-45.7,26.38Zm45.86,29,.15,52.54L402.75,442l-.16-52.55ZM402.75,445l45.7-26.38.14,52.53L402.9,497.49Zm.16,55.45L448.6,474l.16,52.54L403.06,553Zm.16,55.46,45.7-26.39.14,52.55-45.7,26.38Zm.15,55.45,45.7-26.39.15,52.55-45.7,26.38Zm.31,108-.15-52.5,45.7-26.39.14,52.51Zm47-468.5,45.72-26.4.16,52.51-45.73,26.4Zm.16,55.45,45.73-26.39.15,52.5-45.74,26.41Zm.15,55.43,45.73-26.4.15,52.54L451,414.19Zm45.89,29.05.15,52.54-45.73,26.41L451,417.1Zm-45.58,81.86,45.74-26.41L497,498.7l-45.72,26.4Zm45.89,29,.15,52.55-45.72,26.4L451.3,528Zm-45.57,81.87,45.73-26.41.15,52.55L451.6,636Zm.31,108-.15-52.51,45.73-26.4.15,52.51Zm47-468.52,45.73-26.4.14,52.51-45.73,26.4Zm.15,55.45L544.65,252l.15,52.5-45.72,26.41Zm.17,55.42,45.72-26.39.16,52.54-45.74,26.4Zm.23,81.87-.08-26.41L545,362.83l.15,52.55-45.73,26.4Zm.08,29,45.73-26.4.15,52.55-45.74,26.39Zm.15,55.46,45.73-26.41.15,52.55-45.73,26.4Zm45.89,29.05.15,52.55-45.72,26.39-.16-52.53ZM500,663.57l-.15-52.52,45.72-26.4.15,52.52Zm47-468.52,45.73-26.4.15,52.5-45.73,26.41-.08-26.26Zm.15,55.45,45.74-26.4.14,52.51L547.33,303Zm.16,55.42,45.73-26.4.15,52.54-45.73,26.4Zm.16,55.46L593.23,335l.14,52.55-45.72,26.4Zm.16,55.45,45.72-26.4.16,52.55-45.73,26.39Zm.16,55.46,45.73-26.41.15,52.55L548,524.83Zm.15,55.44,45.73-26.39.15,52.55-45.73,26.39Zm.3,108-.14-52.51,45.73-26.4L594,609.3Zm47.1-442.26-.08-26.26L641,140.79l.15,52.5L595.44,219.7Zm45.8,2.79.16,52.52L595.6,275.14l-.15-52.5ZM595.6,278.06l45.74-26.41.14,52.55-45.73,26.4Zm45.89,29.05.15,52.55-45.73,26.4-.15-52.54ZM595.91,389l45.74-26.41.14,52.55-45.73,26.4Zm.16,55.45L641.8,418l.15,52.55L596.23,497Zm.17,55.45L642,473.47,642.1,526l-45.72,26.41Zm.3,108-.15-52.51,45.72-26.4.16,52.5Zm47.08-442.33-.07-26.19,45.73-26.4.15,52.51-45.74,26.4Zm.08,29.27,45.73-26.41.15,52.52-45.73,26.39Zm45.89,29,.15,52.55L644,302.74l-.16-52.54ZM644,305.65l45.72-26.4.16,52.55-45.73,26.39Zm45.89,29.05.15,52.55-45.73,26.4-.15-52.55Zm-45.58,81.85,45.74-26.39.14,52.55L644.48,469.1Zm45.89,29.06.15,52.54-45.73,26.41L644.49,472ZM644.8,580l-.16-52.52,45.74-26.39.14,52.5Z"/><g class="cls-2"><g class="cls-31"><path class="cls-16" d="M276.11,740.44l3.71-8.18c.22-.52.46-1.15.72-1.9l.07,0c-.05,1.14-.07,2.16-.07,3v4.51l-4.44,2.56m5.7-12.43-1.43.82-5.61,12.45v1.34l5.78-3.34v3.12l1.29-.75v-3.12l1.77-1v-1.4l-1.77,1,0-9.12"/><path class="cls-16" d="M291.65,722.41l-5.92,3.42-.43,6.6.7.11a19.62,19.62,0,0,1,2.07-1.47q3-1.76,3.05,1.08a4.77,4.77,0,0,1-.78,2.69,6.41,6.41,0,0,1-2.22,2.06,8.1,8.1,0,0,1-1.67.72,3.28,3.28,0,0,1-1.42.16v1.49a5.61,5.61,0,0,0,3.06-1,9,9,0,0,0,3.24-3.07,7.32,7.32,0,0,0,1.17-4c0-1.23-.36-2-1.09-2.29s-1.71-.08-3,.64a14.65,14.65,0,0,0-1.86,1.3l.29-4.25,4.76-2.75v-1.42"/></g></g><g class="cls-2"><g class="cls-32"><path class="cls-16" d="M282.3,673.82l-5.92,3.42-.43,6.6.7.11a20.81,20.81,0,0,1,2.07-1.46q3-1.77,3.06,1.08a4.83,4.83,0,0,1-.79,2.68,6.35,6.35,0,0,1-2.23,2.06,7.57,7.57,0,0,1-1.66.73,3.43,3.43,0,0,1-1.42.16v1.48a5.58,5.58,0,0,0,3.08-1,9.17,9.17,0,0,0,3.24-3.06,7.49,7.49,0,0,0,1.16-4c0-1.23-.36-2-1.09-2.28s-1.7-.08-3,.64a16.48,16.48,0,0,0-1.86,1.29l.29-4.25,4.76-2.75v-1.42"/><path class="cls-16" d="M288.88,682.47c-.89.51-1.54.44-1.95-.23a8.5,8.5,0,0,1-.62-4,13.87,13.87,0,0,1,.6-4.65,4.45,4.45,0,0,1,1.94-2.47c.9-.52,1.55-.44,2,.24a8.66,8.66,0,0,1,.62,3.92,14.53,14.53,0,0,1-.6,4.65,4.43,4.43,0,0,1-1.95,2.5m0-12.64a6.89,6.89,0,0,0-2.94,3.42,14.93,14.93,0,0,0-1,5.82c0,2.29.34,3.84,1,4.64s1.64.82,2.92.09a7,7,0,0,0,3-3.45,14.9,14.9,0,0,0,1-5.83c0-2.26-.35-3.79-1-4.6s-1.65-.84-3-.09"/></g></g><g class="cls-2"><g class="cls-33"><path class="cls-16" d="M282.27,619.49l-5.92,3.42-.43,6.61.71.1a18,18,0,0,1,2.06-1.45q3-1.77,3.06,1.07a4.83,4.83,0,0,1-.79,2.68,6.41,6.41,0,0,1-2.22,2.06,7.85,7.85,0,0,1-1.67.73,3.27,3.27,0,0,1-1.42.16v1.48a5.55,5.55,0,0,0,3.08-1,9.09,9.09,0,0,0,3.24-3.06,7.39,7.39,0,0,0,1.16-4c0-1.24-.36-2-1.08-2.29s-1.71-.08-3,.64a15.71,15.71,0,0,0-1.87,1.29l.29-4.25,4.76-2.75v-1.42"/><path class="cls-16" d="M291.8,614l-5.92,3.42-.43,6.61.7.1a19.7,19.7,0,0,1,2.07-1.46q3-1.75,3,1.08a4.74,4.74,0,0,1-.78,2.68,6.41,6.41,0,0,1-2.22,2.06,8.39,8.39,0,0,1-1.67.73,3.28,3.28,0,0,1-1.42.16v1.48a5.52,5.52,0,0,0,3.06-1,9,9,0,0,0,3.24-3.06,7.34,7.34,0,0,0,1.17-4c0-1.24-.36-2-1.09-2.29s-1.71-.08-3,.64a14.86,14.86,0,0,0-1.86,1.29l.29-4.25,4.76-2.75V614"/></g></g><g class="cls-2"><g class="cls-34"><path class="cls-16" d="M279.52,574.27a1.91,1.91,0,0,1-1.36.3,1.38,1.38,0,0,1-.93-.77,3.48,3.48,0,0,1-.33-1.6,3.54,3.54,0,0,1,.36-1.46,6,6,0,0,1,1-1.51,5.44,5.44,0,0,1,1.34-1.12c.79-.45,1.38-.54,1.78-.25a2.13,2.13,0,0,1,.6,1.78,5.85,5.85,0,0,1-.63,2.76,4.63,4.63,0,0,1-1.8,1.87m1.37-13.45a9.87,9.87,0,0,0-4,4.31,15.22,15.22,0,0,0-1.35,6.77c0,1.88.37,3.14,1.1,3.78s1.7.6,2.93-.11a7.42,7.42,0,0,0,2.74-2.79,7.77,7.77,0,0,0,1-3.91,2.72,2.72,0,0,0-.93-2.47c-.62-.38-1.46-.27-2.53.35A6.62,6.62,0,0,0,277,570l-.09.06a11.32,11.32,0,0,1,1.09-4.92,7.47,7.47,0,0,1,2.91-3,5.21,5.21,0,0,1,1.44-.59v-1.33a6.23,6.23,0,0,0-1.45.66"/><path class="cls-16" d="M288.85,568.86c-.89.51-1.53.44-1.94-.23a8.52,8.52,0,0,1-.63-4,14.43,14.43,0,0,1,.6-4.66,4.43,4.43,0,0,1,1.94-2.46c.9-.52,1.56-.45,2,.23a8.41,8.41,0,0,1,.62,3.93,14.33,14.33,0,0,1-.59,4.65,4.45,4.45,0,0,1-2,2.49m0-12.64a6.86,6.86,0,0,0-2.95,3.42,15,15,0,0,0-.95,5.83c0,2.29.34,3.83,1,4.63s1.65.83,2.93.09a7.06,7.06,0,0,0,3-3.45,15.22,15.22,0,0,0,1-5.82c0-2.26-.35-3.8-1-4.61s-1.65-.84-2.94-.09"/></g></g><g class="cls-2"><g class="cls-35"><path class="cls-16" d="M279.5,522.38a1.9,1.9,0,0,1-1.37.31,1.36,1.36,0,0,1-.92-.78,3.53,3.53,0,0,1-.34-1.59,3.66,3.66,0,0,1,.36-1.46,5.64,5.64,0,0,1,1-1.51,5.23,5.23,0,0,1,1.34-1.12c.79-.45,1.38-.54,1.78-.26a2.1,2.1,0,0,1,.6,1.78,5.89,5.89,0,0,1-.63,2.77,4.65,4.65,0,0,1-1.79,1.86m1.36-13.44a9.88,9.88,0,0,0-4,4.31,15.18,15.18,0,0,0-1.34,6.76c0,1.89.36,3.15,1.09,3.79s1.7.59,2.93-.12a7.27,7.27,0,0,0,2.74-2.79,7.77,7.77,0,0,0,1-3.91c0-1.26-.32-2.09-.93-2.46s-1.46-.27-2.53.35A6.58,6.58,0,0,0,277,518.1l-.09,0a11.42,11.42,0,0,1,1.09-4.91,7.31,7.31,0,0,1,2.92-3,4.83,4.83,0,0,1,1.43-.6v-1.32a5.48,5.48,0,0,0-1.45.66"/><path class="cls-16" d="M291.77,502.83l-5.92,3.41-.43,6.62.71.1a19.32,19.32,0,0,1,2.06-1.46q3-1.75,3.06,1.08a4.83,4.83,0,0,1-.79,2.68,6.38,6.38,0,0,1-2.22,2,7.19,7.19,0,0,1-1.67.73,3.09,3.09,0,0,1-1.41.16v1.49a5.63,5.63,0,0,0,3.07-1,9.11,9.11,0,0,0,3.24-3.07,7.31,7.31,0,0,0,1.16-4c0-1.23-.36-2-1.08-2.29s-1.71-.08-3,.65a13.66,13.66,0,0,0-1.87,1.29L287,507l4.76-2.75v-1.42"/></g></g><g class="cls-2"><g class="cls-36"><polyline class="cls-16" points="283.19 452.45 275.27 457.03 275.27 458.45 281.75 454.71 276.86 469.7 278.36 468.84 283.19 453.69 283.19 452.45"/><path class="cls-16" d="M288.81,461.66c-.88.51-1.53.43-1.94-.23a8.54,8.54,0,0,1-.63-4,14.47,14.47,0,0,1,.6-4.66,4.41,4.41,0,0,1,1.94-2.45c.9-.52,1.56-.46,2,.22a8.6,8.6,0,0,1,.61,3.94,14.26,14.26,0,0,1-.59,4.64,4.47,4.47,0,0,1-2,2.5m0-12.65a7,7,0,0,0-2.95,3.42,15,15,0,0,0-.95,5.83c0,2.29.34,3.84,1,4.63s1.65.83,2.93.09a7,7,0,0,0,3-3.45,14.79,14.79,0,0,0,1-5.81c0-2.27-.35-3.81-1-4.61s-1.66-.85-3-.1"/></g></g><g class="cls-2"><g class="cls-37"><polyline class="cls-16" points="283.16 398.62 275.24 403.19 275.25 404.61 281.73 400.87 276.83 415.87 278.33 415 283.16 399.85 283.16 398.62"/><path class="cls-16" d="M291.73,393.67l-5.92,3.42-.43,6.6.71.11a18.63,18.63,0,0,1,2.07-1.47c2-1.17,3-.81,3,1.08a4.84,4.84,0,0,1-.79,2.69,6.24,6.24,0,0,1-2.22,2.06,8.47,8.47,0,0,1-1.67.73,3.56,3.56,0,0,1-1.41.16v1.48a5.53,5.53,0,0,0,3.07-1,9,9,0,0,0,3.24-3.06,7.34,7.34,0,0,0,1.16-4c0-1.23-.36-2-1.08-2.28s-1.71-.08-3,.64a14.61,14.61,0,0,0-1.87,1.29l.29-4.25,4.77-2.75v-1.42"/></g></g><g class="cls-2"><g class="cls-38"><path class="cls-16" d="M279.32,358.11a2.5,2.5,0,0,1-1.91.49c-.45-.16-.68-.6-.69-1.34a4.47,4.47,0,0,1,.55-2.05,11.14,11.14,0,0,1,1.75-2.32,3.91,3.91,0,0,1,2.22.08,1.3,1.3,0,0,1,.64,1.24,3.86,3.86,0,0,1-.68,2.17,5.26,5.26,0,0,1-1.88,1.73m0-6.73a2.86,2.86,0,0,1-1.78-.2,1.35,1.35,0,0,1-.48-1.19,3.35,3.35,0,0,1,.57-1.82,4.67,4.67,0,0,1,1.6-1.48,2,2,0,0,1,1.62-.38c.39.14.59.52.59,1.15a3.75,3.75,0,0,1-.48,1.77,9.87,9.87,0,0,1-1.64,2.15m-.08-5.95a7.64,7.64,0,0,0-2.56,2.35,5.08,5.08,0,0,0-.94,2.91,2.34,2.34,0,0,0,.49,1.6,2.25,2.25,0,0,0,1.61.63c-1.66,1.82-2.48,3.51-2.48,5.07,0,1.17.35,1.86,1,2.1s1.67,0,2.94-.74a8.06,8.06,0,0,0,2.82-2.64,6,6,0,0,0,1-3.3,2,2,0,0,0-.62-1.65,3.06,3.06,0,0,0-2.06-.47,11.22,11.22,0,0,0,1.74-2.51,5,5,0,0,0,.54-2.14c0-1-.33-1.62-1-1.84a3.39,3.39,0,0,0-2.58.63"/><path class="cls-16" d="M288.83,352.55c-.89.51-1.53.44-1.95-.23a8.44,8.44,0,0,1-.62-4,13.87,13.87,0,0,1,.6-4.65,4.43,4.43,0,0,1,1.94-2.46c.9-.52,1.56-.45,2,.23a8.54,8.54,0,0,1,.62,3.93,14.33,14.33,0,0,1-.59,4.65,4.45,4.45,0,0,1-2,2.49m0-12.64a6.89,6.89,0,0,0-2.94,3.42,15.12,15.12,0,0,0-1,5.82c0,2.3.35,3.84,1,4.64s1.65.83,2.92.09a7,7,0,0,0,3-3.45,15.05,15.05,0,0,0,1-5.82c0-2.26-.35-3.8-1-4.61s-1.65-.84-2.95-.09"/></g></g><text class="cls-39" transform="matrix(0.87, -0.5, 0, 1, 498.81, 747.14)">Weeks</text><text class="cls-40" transform="matrix(0.87, -0.5, 0, 1, 348.66, 794.63)">5</text><text class="cls-40" transform="matrix(0.87, -0.5, 0, 1, 390.19, 770.64)">10</text><text class="cls-40" transform="matrix(0.87, -0.5, 0, 1, 438.39, 742.7)">15</text><text class="cls-40" transform="matrix(0.87, -0.5, 0, 1, 487.32, 714.63)">20</text><text class="cls-40" transform="matrix(0.87, -0.5, 0, 1, 535.61, 686.57)">25</text><text class="cls-40" transform="matrix(0.87, -0.5, 0, 1, 583.76, 658.89)">30</text><text class="cls-40" transform="matrix(0.87, -0.5, 0, 1, 632.48, 630.37)">35</text><text class="cls-40" transform="matrix(0.87, -0.5, 0, 1, 680.08, 602.51)">40</text><text class="cls-40" transform="matrix(0.87, -0.5, 0, 1, 300.82, 822.82)">0</text><text class="cls-39" transform="matrix(0, -1, 0.87, -0.5, 241, 628.26)">Weight</text><polygon class="cls-22" points="306.85 719.58 438.35 624.11 692.91 375 692.91 247.01 432.84 584.65 306.85 719.58"/></g></g></svg>